<svg width="253" height="395" viewBox="0 0 253 395" fill="none" xmlns="http://www.w3.org/2000/svg">
<g clip-path="url(#clip0_335_4636)">
<rect width="253" height="395" rx="37" fill="#AB9DFF"/>
<path d="M126.52 24L153.394 84.6273L208.28 45.0081L199.942 110.399L268.132 102.403L226.817 155.036L290.04 180.807L226.817 206.578L268.132 259.21L199.942 251.215L208.28 316.605L153.394 276.986L126.52 337.614L99.6453 276.986L44.7599 316.605L53.0973 251.215L-15.0925 259.21L26.2228 206.578L-37 180.807L26.2228 155.036L-15.0925 102.403L53.0973 110.399L44.7599 45.0081L99.6453 84.6273L126.52 24Z" fill="#253A82"/>
<path d="M145.349 253.025C139.054 250.972 133.309 254.041 129.974 259.336C126.636 264.634 125.776 272.085 129.267 278.604C136.31 291.752 152.525 296.771 165.476 289.834C178.427 282.896 183.232 266.618 176.189 253.47C172.695 246.947 166.34 243.68 160.253 243.59C154.167 243.501 148.39 246.583 145.969 252.733L145.796 253.171L145.349 253.025Z" fill="#FFB2F2" stroke="#FFB2F2"/>
<path d="M146.283 253.508L140.701 244.736H133.258" stroke="#FFB2F2" stroke-width="3" stroke-linecap="round"/>
<path d="M158.642 198.796C152.347 196.743 146.602 199.812 143.267 205.106C139.929 210.404 139.069 217.856 142.56 224.374C149.603 237.523 165.817 242.542 178.769 235.604C191.72 228.667 196.525 212.389 189.482 199.24C185.988 192.717 179.633 189.45 173.546 189.361C167.46 189.272 161.683 192.354 159.262 198.503L159.089 198.942L158.642 198.796Z" fill="#AB9DFF" stroke="#AB9DFF"/>
<path d="M159.576 199.279L153.994 190.507H146.551" stroke="#AB9DFF" stroke-width="3" stroke-linecap="round"/>
<circle cx="135.501" cy="241.685" r="16.0385" transform="rotate(20.8869 135.501 241.685)" fill="#FFF6E4" stroke="#88A2FF"/>
<circle cx="135.138" cy="241.545" r="24.2104" transform="rotate(20.8869 135.138 241.545)" fill="#FFF6E4" stroke="#88A2FF"/>
<circle cx="135.515" cy="241.685" r="14.8168" transform="rotate(20.8869 135.515 241.685)" fill="#FFF6E4" stroke="#88A2FF" stroke-width="5"/>
<circle cx="135.144" cy="241.544" r="23.7104" transform="rotate(20.8869 135.144 241.544)" fill="#FFF6E4" stroke="#88A2FF" stroke-width="2"/>
<mask id="path-11-inside-1_335_4636" fill="white">
<path d="M138.42 217.052C142.626 217.615 146.615 219.251 150.005 221.802L145.223 228.155C142.924 226.424 140.218 225.315 137.366 224.933L138.42 217.052Z"/>
</mask>
<path d="M138.42 217.052C142.626 217.615 146.615 219.251 150.005 221.802L145.223 228.155C142.924 226.424 140.218 225.315 137.366 224.933L138.42 217.052Z" fill="#FFF6E4" stroke="#88A2FF" stroke-width="28" mask="url(#path-11-inside-1_335_4636)"/>
<mask id="path-12-inside-2_335_4636" fill="white">
<path d="M117.776 223.967C120.795 220.985 124.53 218.83 128.622 217.71L130.721 225.38C127.945 226.139 125.412 227.601 123.365 229.623L117.776 223.967Z"/>
</mask>
<path d="M117.776 223.967C120.795 220.985 124.53 218.83 128.622 217.71L130.721 225.38C127.945 226.139 125.412 227.601 123.365 229.623L117.776 223.967Z" fill="#FFF6E4" stroke="#88A2FF" stroke-width="28" mask="url(#path-12-inside-2_335_4636)"/>
<mask id="path-13-inside-3_335_4636" fill="white">
<path d="M110.487 243.17C110.208 238.936 111.024 234.702 112.856 230.875L120.028 234.308C118.785 236.904 118.232 239.775 118.421 242.647L110.487 243.17Z"/>
</mask>
<path d="M110.487 243.17C110.208 238.936 111.024 234.702 112.856 230.875L120.028 234.308C118.785 236.904 118.232 239.775 118.421 242.647L110.487 243.17Z" fill="#FFF6E4" stroke="#88A2FF" stroke-width="28" mask="url(#path-13-inside-3_335_4636)"/>
<mask id="path-14-inside-4_335_4636" fill="white">
<path d="M119.442 260.625C116.166 257.929 113.639 254.434 112.105 250.478L119.519 247.604C120.559 250.286 122.273 252.656 124.495 254.485L119.442 260.625Z"/>
</mask>
<path d="M119.442 260.625C116.166 257.929 113.639 254.434 112.105 250.478L119.519 247.604C120.559 250.286 122.273 252.656 124.495 254.485L119.442 260.625Z" fill="#FFF6E4" stroke="#88A2FF" stroke-width="28" mask="url(#path-14-inside-4_335_4636)"/>
<mask id="path-15-inside-5_335_4636" fill="white">
<path d="M156.47 229.062C158.613 232.724 159.778 236.876 159.851 241.118L151.9 241.255C151.851 238.378 151.061 235.562 149.608 233.079L156.47 229.062Z"/>
</mask>
<path d="M156.47 229.062C158.613 232.724 159.778 236.876 159.851 241.118L151.9 241.255C151.851 238.378 151.061 235.562 149.608 233.079L156.47 229.062Z" fill="#FFF6E4" stroke="#88A2FF" stroke-width="28" mask="url(#path-15-inside-5_335_4636)"/>
<mask id="path-16-inside-6_335_4636" fill="white">
<path d="M141.547 265.411C137.449 266.51 133.137 266.536 129.027 265.486L130.995 257.782C133.783 258.494 136.708 258.477 139.487 257.731L141.547 265.411Z"/>
</mask>
<path d="M141.547 265.411C137.449 266.51 133.137 266.536 129.027 265.486L130.995 257.782C133.783 258.494 136.708 258.477 139.487 257.731L141.547 265.411Z" fill="#FFF6E4" stroke="#88A2FF" stroke-width="28" mask="url(#path-16-inside-6_335_4636)"/>
<mask id="path-17-inside-7_335_4636" fill="white">
<path d="M157.811 251.383C156.122 255.275 153.459 258.667 150.079 261.231L145.273 254.896C147.565 253.157 149.372 250.857 150.517 248.217L157.811 251.383Z"/>
</mask>
<path d="M157.811 251.383C156.122 255.275 153.459 258.667 150.079 261.231L145.273 254.896C147.565 253.157 149.372 250.857 150.517 248.217L157.811 251.383Z" fill="#FFF6E4" stroke="#88A2FF" stroke-width="28" mask="url(#path-17-inside-7_335_4636)"/>
<circle cx="135.371" cy="241.439" r="15.1222" transform="rotate(20.8869 135.371 241.439)" stroke="#88A2FF" stroke-width="4"/>
<circle cx="54.8396" cy="224.363" r="10.9391" transform="rotate(20.8869 54.8396 224.363)" fill="#FFF6E4" stroke="#88A2FF"/>
<circle cx="54.5877" cy="224.266" r="16.5914" transform="rotate(20.8869 54.5877 224.266)" fill="#FFF6E4" stroke="#88A2FF"/>
<circle cx="54.8479" cy="224.363" r="9.47746" transform="rotate(20.8869 54.8479 224.363)" fill="#FFF6E4" stroke="#88A2FF" stroke-width="5"/>
<circle cx="54.5935" cy="224.266" r="16.5914" transform="rotate(20.8869 54.5935 224.266)" fill="#FFF6E4" stroke="#88A2FF"/>
<mask id="path-23-inside-8_335_4636" fill="white">
<path d="M56.8596 207.325C59.7683 207.714 62.5279 208.846 64.8726 210.611L61.5649 215.005C59.9747 213.808 58.1032 213.04 56.1304 212.777L56.8596 207.325Z"/>
</mask>
<path d="M56.8596 207.325C59.7683 207.714 62.5279 208.846 64.8726 210.611L61.5649 215.005C59.9747 213.808 58.1032 213.04 56.1304 212.777L56.8596 207.325Z" fill="#FFF6E4" stroke="#88A2FF" stroke-width="28" mask="url(#path-23-inside-8_335_4636)"/>
<mask id="path-24-inside-9_335_4636" fill="white">
<path d="M42.581 212.108C44.6686 210.045 47.2521 208.555 50.0827 207.78L51.5343 213.085C49.6145 213.611 47.8623 214.621 46.4465 216.02L42.581 212.108Z"/>
</mask>
<path d="M42.581 212.108C44.6686 210.045 47.2521 208.555 50.0827 207.78L51.5343 213.085C49.6145 213.611 47.8623 214.621 46.4465 216.02L42.581 212.108Z" fill="#FFF6E4" stroke="#88A2FF" stroke-width="28" mask="url(#path-24-inside-9_335_4636)"/>
<mask id="path-25-inside-10_335_4636" fill="white">
<path d="M37.5391 225.39C37.3461 222.462 37.9104 219.533 39.1775 216.886L44.1382 219.261C43.2788 221.056 42.8961 223.042 43.027 225.028L37.5391 225.39Z"/>
</mask>
<path d="M37.5391 225.39C37.3461 222.462 37.9104 219.533 39.1775 216.886L44.1382 219.261C43.2788 221.056 42.8961 223.042 43.027 225.028L37.5391 225.39Z" fill="#FFF6E4" stroke="#88A2FF" stroke-width="28" mask="url(#path-25-inside-10_335_4636)"/>
<mask id="path-26-inside-11_335_4636" fill="white">
<path d="M43.733 237.463C41.467 235.598 39.7193 233.181 38.6583 230.445L43.7861 228.457C44.5057 230.313 45.691 231.952 47.2278 233.216L43.733 237.463Z"/>
</mask>
<path d="M43.733 237.463C41.467 235.598 39.7193 233.181 38.6583 230.445L43.7861 228.457C44.5057 230.313 45.691 231.952 47.2278 233.216L43.733 237.463Z" fill="#FFF6E4" stroke="#88A2FF" stroke-width="28" mask="url(#path-26-inside-11_335_4636)"/>
<mask id="path-27-inside-12_335_4636" fill="white">
<path d="M69.3441 215.632C70.8265 218.165 71.6318 221.037 71.6824 223.971L66.1834 224.066C66.1491 222.076 65.6029 220.128 64.5975 218.411L69.3441 215.632Z"/>
</mask>
<path d="M69.3441 215.632C70.8265 218.165 71.6318 221.037 71.6824 223.971L66.1834 224.066C66.1491 222.076 65.6029 220.128 64.5975 218.411L69.3441 215.632Z" fill="#FFF6E4" stroke="#88A2FF" stroke-width="28" mask="url(#path-27-inside-12_335_4636)"/>
<mask id="path-28-inside-13_335_4636" fill="white">
<path d="M59.0226 240.773C56.1882 241.534 53.2057 241.552 50.3624 240.825L51.7239 235.497C53.6523 235.989 55.6751 235.977 57.5974 235.462L59.0226 240.773Z"/>
</mask>
<path d="M59.0226 240.773C56.1882 241.534 53.2057 241.552 50.3624 240.825L51.7239 235.497C53.6523 235.989 55.6751 235.977 57.5974 235.462L59.0226 240.773Z" fill="#FFF6E4" stroke="#88A2FF" stroke-width="28" mask="url(#path-28-inside-13_335_4636)"/>
<mask id="path-29-inside-14_335_4636" fill="white">
<path d="M70.2718 231.071C69.1034 233.763 67.2615 236.109 64.9234 237.882L61.5994 233.501C63.1851 232.298 64.4343 230.707 65.2268 228.881L70.2718 231.071Z"/>
</mask>
<path d="M70.2718 231.071C69.1034 233.763 67.2615 236.109 64.9234 237.882L61.5994 233.501C63.1851 232.298 64.4343 230.707 65.2268 228.881L70.2718 231.071Z" fill="#FFF6E4" stroke="#88A2FF" stroke-width="28" mask="url(#path-29-inside-14_335_4636)"/>
<circle cx="54.7506" cy="224.193" r="9.84288" transform="rotate(20.8869 54.7506 224.193)" stroke="#88A2FF" stroke-width="4"/>
<ellipse cx="206.042" cy="253.966" rx="56.6237" ry="20.2952" transform="rotate(130.27 206.042 253.966)" fill="#C0E0FF"/>
<ellipse cx="206.042" cy="253.966" rx="56.6237" ry="20.2952" transform="rotate(130.27 206.042 253.966)" fill="#C0E0FF"/>
<path d="M229.314 241.055C230.748 241.951 232.671 242.724 234.391 243.234C235.536 243.573 236.602 246.035 235.873 246.98C235.691 247.215 235.43 247.378 235.139 247.437C233.789 247.71 230.883 248.145 226.946 245.283C224.907 243.802 223.55 242.102 222.726 240.411C221.655 238.21 224.235 237.144 226.12 238.705C227.158 239.564 228.26 240.397 229.314 241.055Z" fill="#253A82"/>
<path d="M197.381 280.502C198.437 281.118 199.835 281.617 201.171 281.95C202.222 282.212 203.363 284.675 202.694 285.527C202.557 285.702 202.368 285.83 202.155 285.894C200.959 286.256 198.262 286.998 194.89 284.626C193.251 283.473 192.195 282.079 191.587 280.642C190.662 278.456 193.348 277.532 195.213 279C195.924 279.559 196.662 280.082 197.381 280.502Z" fill="#253A82"/>
<path d="M220.504 252.211C222.332 253.407 224.801 254.495 226.875 255.189C228.085 255.594 229.08 258.017 228.308 259.032C228.083 259.329 227.747 259.524 227.378 259.567C225.878 259.74 222.75 259.884 218.259 256.544C215.821 254.731 214.156 252.733 213.109 250.8C211.906 248.581 214.402 247.402 216.329 249.033C217.677 250.175 219.134 251.315 220.504 252.211Z" fill="#253A82"/>
<path d="M212.633 261.502C214.461 262.698 216.93 263.786 219.004 264.48C220.213 264.885 221.209 267.308 220.437 268.323C220.212 268.62 219.876 268.815 219.507 268.858C218.007 269.031 214.879 269.175 210.388 265.835C207.95 264.022 206.285 262.024 205.238 260.091C204.035 257.872 206.531 256.693 208.458 258.324C209.806 259.466 211.263 260.606 212.633 261.502Z" fill="#253A82"/>
<path d="M205.903 271.763C207.146 272.516 208.803 273.147 210.335 273.566C211.437 273.868 212.541 276.336 211.839 277.238C211.68 277.443 211.456 277.589 211.204 277.652C209.931 277.971 207.131 278.558 203.474 275.939C201.635 274.622 200.429 273.074 199.715 271.509C198.714 269.316 201.344 268.316 203.216 269.834C204.092 270.546 205.014 271.224 205.903 271.763Z" fill="#253A82"/>
<path d="M84.8579 293.558C84.8579 293.558 96.8335 284.664 105.496 281.864C114.313 279.014 129.497 279.306 129.497 279.306" stroke="#FFF6E4" stroke-width="4"/>
<path d="M67.9519 236.866C67.682 229.805 70.6972 223.363 69.3441 214.981L97.1654 206.098C100.313 213.193 107.857 218.17 110.983 223.127C114.11 228.085 131.51 276.37 128.999 279.554C126.488 282.738 117.72 288.615 109.171 291.364C100.546 294.137 88.6537 294.103 85.9677 293.293C83.2816 292.483 68.2218 243.927 67.9519 236.866Z" fill="#AB9DFF" stroke="#FFF6E4" stroke-width="3"/>
<path d="M66.9909 214.34C67.0738 212.607 66.0674 209.994 66.0674 209.994L96.3975 199.615C96.3975 199.615 96.8261 202.212 97.6748 203.615C98.9014 205.644 100.435 206.446 102.38 207.45C104.324 208.453 97.956 208.094 95.6415 209.601C93.6673 210.887 93.7463 213.375 91.4619 213.952C90.1098 214.294 89.2375 213.302 87.9001 213.697C86.4855 214.115 86.322 215.536 84.9345 216.036C83.3938 216.592 82.2816 215.427 80.7409 215.983C79.3534 216.483 79.1636 217.824 77.7753 218.322C75.5578 219.118 71.8478 217.198 71.8478 217.198C71.8478 217.198 70.4996 219.184 69.1599 219.68C67.6719 220.232 63.6849 221.428 65.1097 219.349C66.5346 217.27 66.8909 216.427 66.9909 214.34Z" fill="#C0E0FF" stroke="#C0E0FF" stroke-linecap="round"/>
<path d="M77.5368 194.327C81.1112 193.186 85.8147 191.94 89.4811 191.012C92.4739 190.255 95.521 191.978 96.463 194.928C97.4594 198.05 95.7363 201.388 92.6149 202.385L69.9185 209.631C66.7969 210.628 63.4585 208.906 62.4616 205.784C61.5197 202.834 63.0036 199.664 65.8813 198.547C69.4067 197.178 73.9624 195.469 77.5368 194.327Z" fill="#C0E0FF" stroke="#C0E0FF"/>
<path d="M66.1247 210.904C68.8591 210.263 77.1124 208.556 81.832 207.049C86.675 205.503 93.3098 202.302 96.7326 200.667" stroke="#FFF6E4" stroke-width="3"/>
<path d="M208.528 210.907L194.606 206.02C193.149 205.509 191.686 206.773 191.981 208.289L194.905 223.329C195.045 224.048 195.566 224.633 196.265 224.854L210.087 229.232C211.534 229.691 212.944 228.434 212.654 226.944L209.829 212.412C209.693 211.715 209.198 211.142 208.528 210.907Z" fill="#88A2FF"/>
<path d="M207.36 212.044L196.27 208.18C194.813 207.672 193.355 208.936 193.649 210.45L195.968 222.378C196.108 223.098 196.632 223.684 197.332 223.904L208.343 227.365C209.789 227.819 211.195 226.563 210.906 225.075L208.665 213.551C208.529 212.852 208.032 212.278 207.36 212.044Z" fill="#FFF6E4"/>
<path d="M176.684 217.098L187.76 207.352C188.92 206.331 190.75 206.955 191.044 208.471L193.969 223.511C194.108 224.23 193.844 224.968 193.28 225.435L182.105 234.673C180.935 235.64 179.157 235.003 178.867 233.513L176.042 218.981C175.906 218.284 176.15 217.567 176.684 217.098Z" fill="#88A2FF"/>
<path d="M196.077 225.653L210.074 230.404C211.537 230.901 211.908 232.798 210.74 233.81L199.196 243.812C198.624 244.308 197.821 244.438 197.122 244.149L183.634 238.573C182.242 237.998 181.962 236.15 183.119 235.187L194.156 226.009C194.691 225.564 195.418 225.43 196.077 225.653Z" fill="#88A2FF"/>
<ellipse cx="202.517" cy="217.702" rx="1.38851" ry="1.97018" transform="rotate(138.187 202.517 217.702)" fill="#88A2FF"/>
<path d="M181.07 278.555L188.547 270.729C189.614 269.612 189.066 267.759 187.563 267.402L176.6 264.8C175.888 264.63 175.14 264.864 174.651 265.409L167.543 273.322C166.529 274.451 167.092 276.254 168.569 276.604L179.162 279.119C179.853 279.283 180.579 279.068 181.07 278.555Z" fill="#88A2FF"/>
<path d="M176.447 277.359L176.682 277.415C178.635 277.879 180.688 277.269 182.071 275.815C185.07 272.662 183.52 267.445 179.287 266.44L179.052 266.384C177.039 265.906 174.925 266.57 173.546 268.112C170.697 271.298 172.289 276.372 176.447 277.359Z" fill="#FFF6E4"/>
<path d="M186.951 253.78L190.113 264.131C190.565 265.608 189.242 267.018 187.739 266.661L176.776 264.059C176.063 263.889 175.5 263.344 175.308 262.638L172.515 252.375C172.116 250.91 173.43 249.553 174.907 249.904L185.5 252.418C186.191 252.582 186.743 253.1 186.951 253.78Z" fill="#88A2FF"/>
<path d="M174.138 264.997L166.723 272.919C165.668 274.046 163.786 273.602 163.346 272.122L160.15 261.365C159.934 260.64 160.147 259.855 160.698 259.337L168.511 252.006C169.608 250.975 171.408 251.482 171.807 252.933L174.606 263.1C174.791 263.771 174.613 264.489 174.138 264.997Z" fill="#88A2FF"/>
<ellipse cx="177.95" cy="272.122" rx="1.10701" ry="1.57075" transform="rotate(-107.456 177.95 272.122)" fill="#88A2FF"/>
<ellipse cx="165.598" cy="270.035" rx="1.10701" ry="1.57075" transform="rotate(-167.403 165.598 270.035)" fill="#FFF6E4"/>
<ellipse cx="60.3433" cy="27.7579" rx="60.3433" ry="27.7579" transform="matrix(0.636747 0.771073 0.771073 -0.636747 0.000976562 244.459)" fill="#C0E0FF"/>
<circle cx="3.45602" cy="3.45602" r="3.45602" transform="matrix(0.636747 0.771073 0.771073 -0.636747 23.252 237.638)" fill="#253A82"/>
<path d="M31.9386 274.004C32.865 275.126 34.1991 275.834 35.6475 275.972C37.0958 276.11 38.5397 275.667 39.6616 274.741C40.7834 273.814 41.4913 272.48 41.6295 271.032C41.7677 269.584 41.3248 268.14 40.3984 267.018" stroke="#FFB2F2" stroke-width="2"/>
<path d="M40.3995 267.018C41.326 268.14 42.6601 268.848 44.1084 268.986C45.5567 269.124 47.0007 268.681 48.1225 267.755C49.2443 266.829 49.9522 265.494 50.0904 264.046C50.2286 262.598 49.7858 261.154 48.8594 260.032" stroke="#FFB2F2" stroke-width="2"/>
<path d="M48.8585 260.032C49.7849 261.154 51.1191 261.861 52.5674 262C54.0157 262.138 55.4596 261.695 56.5815 260.769C57.7033 259.842 58.4112 258.508 58.5494 257.06C58.6876 255.611 58.2448 254.167 57.3184 253.046" stroke="#FFB2F2" stroke-width="2"/>
<path d="M57.3175 253.046C58.2439 254.168 59.578 254.876 61.0264 255.014C62.4747 255.152 63.9186 254.709 65.0405 253.783C66.1623 252.856 66.8702 251.522 67.0084 250.074C67.1466 248.626 66.7038 247.182 65.7773 246.06" stroke="#FFB2F2" stroke-width="2"/>
<path d="M50.382 296.338C51.3084 297.46 52.6425 298.168 54.0908 298.306C55.5392 298.444 56.9831 298.001 58.1049 297.075C59.2268 296.148 59.9346 294.814 60.0728 293.366C60.211 291.918 59.7682 290.474 58.8418 289.352" stroke="#FFB2F2" stroke-width="2"/>
<path d="M58.841 289.352C59.7674 290.474 61.1015 291.182 62.5498 291.32C63.9982 291.458 65.4421 291.015 66.5639 290.089C67.6857 289.162 68.3936 287.828 68.5318 286.38C68.67 284.931 68.2272 283.488 67.3008 282.366" stroke="#FFB2F2" stroke-width="2"/>
<path d="M67.3019 282.366C68.2283 283.488 69.5624 284.195 71.0108 284.334C72.4591 284.472 73.903 284.029 75.0248 283.103C76.1467 282.176 76.8546 280.842 76.9928 279.394C77.1309 277.945 76.6881 276.501 75.7617 275.38" stroke="#FFB2F2" stroke-width="2"/>
<path d="M75.7609 275.38C76.6873 276.501 78.0214 277.209 79.4697 277.348C80.9181 277.486 82.362 277.043 83.4838 276.117C84.6057 275.19 85.3135 273.856 85.4517 272.408C85.5899 270.959 85.1471 269.515 84.2207 268.394" stroke="#FFB2F2" stroke-width="2"/>
<path d="M41.1613 285.171C42.0877 286.293 43.4218 287.001 44.8701 287.139C46.3185 287.277 47.7624 286.834 48.8842 285.908C50.0061 284.981 50.7139 283.647 50.8521 282.199C50.9903 280.751 50.5475 279.307 49.6211 278.185" stroke="#FFB2F2" stroke-width="2"/>
<path d="M49.6203 278.185C50.5467 279.307 51.8808 280.015 53.3291 280.153C54.7774 280.291 56.2214 279.848 57.3432 278.922C58.465 277.995 59.1729 276.661 59.3111 275.213C59.4493 273.764 59.0065 272.321 58.0801 271.199" stroke="#FFB2F2" stroke-width="2"/>
<path d="M58.0812 271.199C59.0076 272.321 60.3417 273.028 61.7901 273.167C63.2384 273.305 64.6823 272.862 65.8041 271.936C66.926 271.009 67.6339 269.675 67.7721 268.227C67.9102 266.778 67.4674 265.334 66.541 264.213" stroke="#FFB2F2" stroke-width="2"/>
<path d="M67.9081 265.949C69.0569 266.821 71.659 268.348 74.2018 269.33C75.4753 269.822 76.6654 270.151 77.614 270.218C78.6029 270.289 79.0402 270.064 79.2193 269.828C79.4385 269.539 79.5684 268.892 79.3423 267.746C79.1279 266.659 78.6399 265.363 77.9948 264.047C77.3534 262.738 76.577 261.45 75.8168 260.381C75.0419 259.291 74.3339 258.501 73.8431 258.129C71.8681 256.63 68.8953 257.066 67.2238 259.268C65.5527 261.47 65.9333 264.45 67.9081 265.949Z" fill="#C0E0FF" stroke="#FFB2F2" stroke-width="2"/>
<path d="M18 237.292V496H235.889V243.562L221.981 259.731L207.455 243.562L185.203 248.512L172.222 243.562L163.569 259.731L149.661 243.562L144.098 259.731L127.099 243.562L118.445 254.452L109.792 243.562L96.5019 254.452L79.8125 243.562L64.3594 248.512L48.9063 243.562L35.3075 254.452L18 237.292Z" fill="#FFB2F2"/>
</g>
<defs>
<clipPath id="clip0_335_4636">
<rect width="253" height="395" rx="37" fill="white"/>
</clipPath>
</defs>
</svg>
