<svg width="253" height="395" viewBox="0 0 253 395" fill="none" xmlns="http://www.w3.org/2000/svg">
<g clip-path="url(#clip0_335_4555)">
<rect width="253" height="395" rx="37" fill="#AB9DFF"/>
<path d="M195.5 208C195.5 198.873 193.702 189.836 190.21 181.403C186.717 172.971 181.598 165.31 175.144 158.856C168.69 152.402 161.029 147.283 152.596 143.79C144.164 140.298 135.127 138.5 126 138.5C116.873 138.5 107.836 140.298 99.4035 143.79C90.9714 147.283 83.3097 152.402 76.8561 158.856C70.4024 165.31 65.2831 172.971 61.7904 181.404C58.2977 189.836 56.5 198.873 56.5 208L126 208H195.5Z" fill="#FFB2F2"/>
<path d="M177 173.5C177 166.803 175.681 160.171 173.118 153.983C170.555 147.796 166.798 142.173 162.062 137.438C157.327 132.702 151.704 128.945 145.517 126.382C139.329 123.819 132.697 122.5 126 122.5C119.303 122.5 112.671 123.819 106.483 126.382C100.296 128.945 94.6733 132.702 89.9376 137.438C85.2018 142.173 81.4451 147.796 78.8821 153.983C76.3192 160.171 75 166.803 75 173.5L126 173.5H177Z" fill="#FFB2F2"/>
<path d="M55 211.5H198L168.593 292.5H85L55 211.5Z" fill="#FFF6E4"/>
<circle cx="65" cy="210.5" r="10" fill="#FFF6E4"/>
<circle cx="83" cy="210.5" r="10" fill="#FFF6E4"/>
<circle cx="101" cy="210.5" r="10" fill="#FFF6E4"/>
<ellipse cx="118.5" cy="210.5" rx="9.5" ry="10" fill="#FFF6E4"/>
<circle cx="136" cy="210.5" r="10" fill="#FFF6E4"/>
<circle cx="154" cy="210.5" r="10" fill="#FFF6E4"/>
<circle cx="172" cy="210.5" r="10" fill="#FFF6E4"/>
<circle cx="188" cy="210.5" r="10" fill="#FFF6E4"/>
<circle cx="130.5" cy="122" r="11.5" fill="#FFF6E4"/>
<path d="M133 116L137.327 108.515L148 103" stroke="#FFF6E4" stroke-width="2"/>
<circle cx="17.1459" cy="32.984" r="43.3843" transform="rotate(-8.23447 17.1459 32.984)" fill="#253A82" stroke="#FFB2F2"/>
<circle cx="16.131" cy="33.1281" r="48" transform="rotate(-8.23447 16.131 33.1281)" fill="#253A82" stroke="#FFB2F2" stroke-width="35.1367"/>
<circle cx="17.1516" cy="32.9796" r="45.5" transform="rotate(-8.23447 17.1516 32.9796)" fill="#253A82" stroke="#FFB2F2" stroke-width="0.898956"/>
<circle cx="16.132" cy="33.1293" r="64.0684" transform="rotate(-8.23447 16.132 33.1293)" fill="#253A82" stroke="#FFB2F2" stroke-width="3"/>
<mask id="path-19-inside-1_335_4555" fill="white">
<path d="M4.36932 97.6352C-6.70655 95.6161 -17.076 90.7792 -25.7402 83.5902L-12.2675 67.3527C-6.39131 72.2283 0.641353 75.5088 8.15315 76.8781L4.36932 97.6352Z"/>
</mask>
<path d="M4.36932 97.6352C-6.70655 95.6161 -17.076 90.7792 -25.7402 83.5902L-12.2675 67.3527C-6.39131 72.2283 0.641353 75.5088 8.15315 76.8781L4.36932 97.6352Z" fill="#253A82" stroke="#FFB2F2" stroke-width="112" mask="url(#path-19-inside-1_335_4555)"/>
<mask id="path-20-inside-2_335_4555" fill="white">
<path d="M49.4441 -23.3437C59.1408 -17.6232 67.2013 -9.50224 72.8491 0.237035L54.597 10.8215C50.7666 4.21622 45.2999 -1.29151 38.7234 -5.17123L49.4441 -23.3437Z"/>
</mask>
<path d="M49.4441 -23.3437C59.1408 -17.6232 67.2013 -9.50224 72.8491 0.237035L54.597 10.8215C50.7666 4.21622 45.2999 -1.29151 38.7234 -5.17123L49.4441 -23.3437Z" fill="#253A82" stroke="#FFB2F2" stroke-width="112" mask="url(#path-20-inside-2_335_4555)"/>
<mask id="path-21-inside-3_335_4555" fill="white">
<path d="M61.7911 80.184C53.7117 88.0245 43.7495 93.6527 32.8641 96.5263L27.4786 76.1261C34.8613 74.1772 41.6178 70.3601 47.0973 65.0425L61.7911 80.184Z"/>
</mask>
<path d="M61.7911 80.184C53.7117 88.0245 43.7495 93.6527 32.8641 96.5263L27.4786 76.1261C34.8613 74.1772 41.6178 70.3601 47.0973 65.0425L61.7911 80.184Z" fill="#253A82" stroke="#FFB2F2" stroke-width="112" mask="url(#path-21-inside-3_335_4555)"/>
<mask id="path-22-inside-4_335_4555" fill="white">
<path d="M81.3769 26.6647C82.487 37.8682 80.6936 49.1689 76.1695 59.4783L56.8489 50.9997C59.9172 44.0077 61.1335 36.3435 60.3807 28.7451L81.3769 26.6647Z"/>
</mask>
<path d="M81.3769 26.6647C82.487 37.8682 80.6936 49.1689 76.1695 59.4783L56.8489 50.9997C59.9172 44.0077 61.1335 36.3435 60.3807 28.7451L81.3769 26.6647Z" fill="#253A82" stroke="#FFB2F2" stroke-width="112" mask="url(#path-22-inside-4_335_4555)"/>
<circle cx="16.5549" cy="32.557" r="40.9332" transform="rotate(-8.23447 16.5549 32.557)" fill="#253A82" stroke="#FFB2F2" stroke-width="9"/>
<circle cx="268.033" cy="198.172" r="32.0066" transform="rotate(-8.23447 268.033 198.172)" fill="#253A82" stroke="#FFB2F2"/>
<circle cx="267.281" cy="198.279" r="48" transform="rotate(-8.23447 267.281 198.279)" fill="#253A82" stroke="#FFB2F2" stroke-width="1.13747"/>
<circle cx="268.037" cy="198.169" r="34.0364" transform="rotate(-8.23447 268.037 198.169)" fill="#253A82"/>
<circle cx="267.281" cy="198.28" r="47.0687" transform="rotate(-8.23447 267.281 198.28)" fill="#253A82" stroke="#FFB2F2" stroke-width="3"/>
<mask id="path-28-inside-5_335_4555" fill="white">
<path d="M249.477 153.092C257.236 150.035 265.651 149.028 273.913 150.167L271.778 165.649C266.175 164.877 260.468 165.56 255.205 167.633L249.477 153.092Z"/>
</mask>
<path d="M249.477 153.092C257.236 150.035 265.651 149.028 273.913 150.167L271.778 165.649C266.175 164.877 260.468 165.56 255.205 167.633L249.477 153.092Z" fill="#253A82" stroke="#FFB2F2" stroke-width="112" mask="url(#path-28-inside-5_335_4555)"/>
<mask id="path-29-inside-6_335_4555" fill="white">
<path d="M220.644 184.711C222.974 176.704 227.327 169.431 233.283 163.594L244.222 174.756C240.183 178.715 237.231 183.647 235.651 189.078L220.644 184.711Z"/>
</mask>
<path d="M220.644 184.711C222.974 176.704 227.327 169.431 233.283 163.594L244.222 174.756C240.183 178.715 237.231 183.647 235.651 189.078L220.644 184.711Z" fill="#253A82" stroke="#FFB2F2" stroke-width="112" mask="url(#path-29-inside-6_335_4555)"/>
<mask id="path-30-inside-7_335_4555" fill="white">
<path d="M226.496 224.656C221.967 217.654 219.318 209.603 218.803 201.279L234.402 200.314C234.751 205.959 236.548 211.42 239.62 216.169L226.496 224.656Z"/>
</mask>
<path d="M226.496 224.656C221.967 217.654 219.318 209.603 218.803 201.279L234.402 200.314C234.751 205.959 236.548 211.42 239.62 216.169L226.496 224.656Z" fill="#253A82" stroke="#FFB2F2" stroke-width="98" mask="url(#path-30-inside-7_335_4555)"/>
<mask id="path-31-inside-8_335_4555" fill="white">
<path d="M258.569 246.062C250.365 244.566 242.684 240.983 236.266 235.658L246.246 223.631C250.598 227.242 255.808 229.672 261.372 230.686L258.569 246.062Z"/>
</mask>
<path d="M258.569 246.062C250.365 244.566 242.684 240.983 236.266 235.658L246.246 223.631C250.598 227.242 255.808 229.672 261.372 230.686L258.569 246.062Z" fill="#253A82" stroke="#FFB2F2" stroke-width="112" mask="url(#path-31-inside-8_335_4555)"/>
<circle cx="267.596" cy="197.856" r="29.1539" transform="rotate(-8.23447 267.596 197.856)" fill="#253A82" stroke="#FFB2F2" stroke-width="9"/>
<circle cx="28.0333" cy="391.172" r="32.0066" transform="rotate(-8.23447 28.0333 391.172)" fill="#253A82" stroke="#FFB2F2"/>
<circle cx="27.2811" cy="391.279" r="48" transform="rotate(-8.23447 27.2811 391.279)" fill="#253A82" stroke="#FFB2F2" stroke-width="1.13747"/>
<circle cx="28.0368" cy="391.169" r="34.0364" transform="rotate(-8.23447 28.0368 391.169)" fill="#253A82"/>
<circle cx="27.2811" cy="391.279" r="47.0687" transform="rotate(-8.23447 27.2811 391.279)" fill="#253A82" stroke="#FFB2F2" stroke-width="3"/>
<mask id="path-37-inside-9_335_4555" fill="white">
<path d="M9.47669 346.092C17.2358 343.035 25.6512 342.028 33.9125 343.167L31.778 358.649C26.175 357.877 20.4676 358.56 15.2053 360.633L9.47669 346.092Z"/>
</mask>
<path d="M9.47669 346.092C17.2358 343.035 25.6512 342.028 33.9125 343.167L31.778 358.649C26.175 357.877 20.4676 358.56 15.2053 360.633L9.47669 346.092Z" fill="#253A82" stroke="#FFB2F2" stroke-width="112" mask="url(#path-37-inside-9_335_4555)"/>
<mask id="path-38-inside-10_335_4555" fill="white">
<path d="M-19.3556 377.711C-17.0257 369.704 -12.6732 362.431 -6.71733 356.594L4.22231 367.755C0.182966 371.714 -2.76894 376.647 -4.34912 382.077L-19.3556 377.711Z"/>
</mask>
<path d="M-19.3556 377.711C-17.0257 369.704 -12.6732 362.431 -6.71733 356.594L4.22231 367.755C0.182966 371.714 -2.76894 376.647 -4.34912 382.077L-19.3556 377.711Z" fill="#253A82" stroke="#FFB2F2" stroke-width="112" mask="url(#path-38-inside-10_335_4555)"/>
<mask id="path-39-inside-11_335_4555" fill="white">
<path d="M-13.5037 417.656C-18.0326 410.653 -20.682 402.603 -21.197 394.279L-5.59795 393.314C-5.24873 398.959 -3.45182 404.419 -0.380303 409.169L-13.5037 417.656Z"/>
</mask>
<path d="M-13.5037 417.656C-18.0326 410.653 -20.682 402.603 -21.197 394.279L-5.59795 393.314C-5.24873 398.959 -3.45182 404.419 -0.380303 409.169L-13.5037 417.656Z" fill="#253A82" stroke="#FFB2F2" stroke-width="98" mask="url(#path-39-inside-11_335_4555)"/>
<mask id="path-40-inside-12_335_4555" fill="white">
<path d="M51.9574 349.448C59.1401 353.686 65.1108 359.701 69.2943 366.915L55.7744 374.756C52.937 369.863 48.8877 365.783 44.0162 362.909L51.9574 349.448Z"/>
</mask>
<path d="M51.9574 349.448C59.1401 353.686 65.1108 359.701 69.2943 366.915L55.7744 374.756C52.937 369.863 48.8877 365.783 44.0162 362.909L51.9574 349.448Z" fill="#253A82" stroke="#FFB2F2" stroke-width="112" mask="url(#path-40-inside-12_335_4555)"/>
<mask id="path-41-inside-13_335_4555" fill="white">
<path d="M75.6112 386.491C76.4335 394.79 75.105 403.161 71.7538 410.797L57.4424 404.517C59.7153 399.338 60.6162 393.661 60.0585 388.032L75.6112 386.491Z"/>
</mask>
<path d="M75.6112 386.491C76.4335 394.79 75.105 403.161 71.7538 410.797L57.4424 404.517C59.7153 399.338 60.6162 393.661 60.0585 388.032L75.6112 386.491Z" fill="#253A82" stroke="#FFB2F2" stroke-width="112" mask="url(#path-41-inside-13_335_4555)"/>
<circle cx="27.5958" cy="390.856" r="29.1539" transform="rotate(-8.23447 27.5958 390.856)" fill="#253A82" stroke="#FFB2F2" stroke-width="9"/>
</g>
<defs>
<clipPath id="clip0_335_4555">
<rect width="253" height="395" rx="37" fill="white"/>
</clipPath>
</defs>
</svg>
