<svg width="253" height="395" viewBox="0 0 253 395" fill="none" xmlns="http://www.w3.org/2000/svg">
<g clip-path="url(#clip0_335_4806)">
<rect width="253" height="395" rx="37" fill="#AB9DFF"/>
<path d="M89.7798 107.678C66.0187 117.675 47.1548 136.816 37.3379 160.889L106.694 189.859C108.919 184.401 113.195 180.062 118.582 177.796L89.7798 107.678Z" fill="#FFB2F2"/>
<path d="M91.4903 289.723C103.758 294.61 116.881 296.915 130.058 296.498C143.235 296.081 156.189 292.95 168.131 287.298L135.626 216.962C133.127 218.144 130.416 218.799 127.659 218.887C124.902 218.974 122.156 218.492 119.59 217.469L91.4903 289.723Z" fill="#88A2FF"/>
<path d="M162.555 106.976C138.61 97.4393 111.902 97.92 88.3071 108.312L118.248 177.94C123.596 175.584 129.651 175.475 135.079 177.637L162.555 106.976Z" fill="#88A2FF"/>
<path d="M215.559 158.18C205.032 134.416 185.609 115.857 161.562 106.587L134.854 177.549C140.305 179.65 144.708 183.857 147.094 189.244L215.559 158.18Z" fill="#C0E0FF"/>
<path d="M37.6916 160.034C27.6505 184.012 27.4324 211.045 37.0854 235.187L108.077 206.111C106.044 201.025 106.09 195.33 108.205 190.278L37.6916 160.034Z" fill="#C0E0FF"/>
<path d="M167.863 287.424C179.421 281.996 189.809 274.318 198.435 264.827C207.061 255.336 213.755 244.219 218.135 232.109L146.219 205.463C145.296 208.014 143.886 210.356 142.069 212.355C140.251 214.355 138.063 215.972 135.628 217.116L167.863 287.424Z" fill="#C0E0FF"/>
<path d="M36.6571 234.097C41.5046 246.649 48.8534 258.057 58.2459 267.611C67.6383 277.164 78.8734 284.659 91.2517 289.628L119.655 217.156C117.104 216.132 114.79 214.588 112.855 212.62C110.92 210.652 109.406 208.301 108.407 205.715L36.6571 234.097Z" fill="#FFB2F2"/>
<path d="M218.209 231.906C227.002 207.431 225.828 180.422 214.946 156.823L145.138 189.795C147.38 194.657 147.622 200.221 145.811 205.264L218.209 231.906Z" fill="#FFB2F2"/>
<path d="M127.312 181.013C135.943 181.013 143.065 188.11 143.065 197.021C143.065 205.932 135.943 213.029 127.313 213.029C118.682 213.029 111.559 205.932 111.559 197.021C111.559 188.11 118.682 181.013 127.312 181.013Z" fill="#FFF6E4" stroke="#FFF6E4" stroke-width="13"/>
<mask id="path-11-inside-1_335_4806" fill="white">
<ellipse cx="168.346" cy="258.443" rx="3.70892" ry="3.75131"/>
</mask>
<path d="M172.055 258.443H168.055C168.055 258.349 168.142 258.194 168.346 258.194V262.194V266.194C172.646 266.194 176.055 262.681 176.055 258.443H172.055ZM168.346 262.194V258.194C168.549 258.194 168.637 258.349 168.637 258.443H164.637H160.637C160.637 262.681 164.045 266.194 168.346 266.194V262.194ZM164.637 258.443H168.637C168.637 258.537 168.549 258.692 168.346 258.692V254.692V250.692C164.045 250.692 160.637 254.205 160.637 258.443H164.637ZM168.346 254.692V258.692C168.142 258.692 168.055 258.537 168.055 258.443H172.055H176.055C176.055 254.205 172.646 250.692 168.346 250.692V254.692Z" fill="#253A82" mask="url(#path-11-inside-1_335_4806)"/>
<mask id="path-13-inside-2_335_4806" fill="white">
<ellipse cx="157.84" cy="227.897" rx="3.70892" ry="3.75131"/>
</mask>
<path d="M161.549 227.897H157.549C157.549 227.803 157.636 227.648 157.84 227.648V231.648V235.648C162.14 235.648 165.549 232.135 165.549 227.897H161.549ZM157.84 231.648V227.648C158.043 227.648 158.131 227.803 158.131 227.897H154.131H150.131C150.131 232.135 153.54 235.648 157.84 235.648V231.648ZM154.131 227.897H158.131C158.131 227.991 158.043 228.146 157.84 228.146V224.146V220.146C153.54 220.146 150.131 223.659 150.131 227.897H154.131ZM157.84 224.146V228.146C157.636 228.146 157.549 227.991 157.549 227.897H161.549H165.549C165.549 223.659 162.14 220.146 157.84 220.146V224.146Z" fill="#253A82" mask="url(#path-13-inside-2_335_4806)"/>
<mask id="path-15-inside-3_335_4806" fill="white">
<ellipse cx="179.467" cy="231.516" rx="3.70892" ry="3.75131"/>
</mask>
<path d="M183.176 231.516H179.176C179.176 231.422 179.263 231.268 179.467 231.268V235.268V239.268C183.767 239.268 187.176 235.754 187.176 231.516H183.176ZM179.467 235.268V231.268C179.67 231.268 179.758 231.422 179.758 231.516H175.758H171.758C171.758 235.754 175.166 239.268 179.467 239.268V235.268ZM175.758 231.516H179.758C179.758 231.611 179.67 231.765 179.467 231.765V227.765V223.765C175.166 223.765 171.758 227.278 171.758 231.516H175.758ZM179.467 227.765V231.765C179.263 231.765 179.176 231.611 179.176 231.516H183.176H187.176C187.176 227.278 183.767 223.765 179.467 223.765V227.765Z" fill="#253A82" mask="url(#path-15-inside-3_335_4806)"/>
<path d="M166.95 241.674C167.658 238.852 162.847 240.023 161.411 242.32C161.296 238.918 157.553 236.26 156.846 239.082C156.138 241.905 157.826 244.772 160.617 245.488C163.407 246.204 166.243 244.496 166.95 241.674Z" fill="#253A82"/>
<path d="M163.961 238.156C164.644 235.431 164.063 235.06 163.282 234.859C162.501 234.659 161.815 234.705 161.132 237.431C160.448 240.156 160.528 242.528 161.309 242.729C162.09 242.929 163.278 240.882 163.961 238.156Z" fill="#253A82"/>
<mask id="path-19-inside-4_335_4806" fill="white">
<ellipse cx="3.72977" cy="3.73057" rx="3.72977" ry="3.73057" transform="matrix(-0.517855 -0.858627 0.848744 -0.523661 181.096 167.567)"/>
</mask>
<path d="M180.399 159.209L182.47 162.643C182.345 162.721 182.18 162.681 182.102 162.552L185.497 160.458L188.892 158.363C186.681 154.697 181.951 153.539 178.328 155.774L180.399 159.209ZM185.497 160.458L182.102 162.552C182.024 162.424 182.065 162.257 182.191 162.179L184.262 165.614L186.333 169.048C189.956 166.813 191.103 162.029 188.892 158.363L185.497 160.458ZM184.262 165.614L182.191 162.179C182.316 162.102 182.481 162.141 182.559 162.27L179.164 164.365L175.769 166.46C177.98 170.126 182.71 171.284 186.333 169.048L184.262 165.614ZM179.164 164.365L182.559 162.27C182.637 162.399 182.596 162.566 182.47 162.643L180.399 159.209L178.328 155.774C174.705 158.01 173.558 162.793 175.769 166.46L179.164 164.365Z" fill="#253A82" mask="url(#path-19-inside-4_335_4806)"/>
<mask id="path-21-inside-5_335_4806" fill="white">
<ellipse cx="3.15596" cy="3.15664" rx="3.15596" ry="3.15664" transform="matrix(-0.517855 -0.858627 0.848744 -0.523661 165.279 159.073)"/>
</mask>
<path d="M164.69 152.001L166.761 155.435C166.367 155.679 165.85 155.553 165.608 155.152L169.003 153.057L172.398 150.963C170.351 147.569 165.972 146.497 162.618 148.566L164.69 152.001ZM169.003 153.057L165.608 155.152C165.367 154.751 165.492 154.229 165.887 153.986L167.958 157.42L170.03 160.855C173.384 158.785 174.445 154.357 172.398 150.963L169.003 153.057ZM167.958 157.42L165.887 153.986C166.282 153.742 166.798 153.868 167.04 154.269L163.645 156.363L160.25 158.458C162.297 161.852 166.676 162.924 170.03 160.855L167.958 157.42ZM163.645 156.363L167.04 154.269C167.282 154.67 167.156 155.192 166.761 155.435L164.69 152.001L162.618 148.566C159.264 150.635 158.203 155.064 160.25 158.458L163.645 156.363Z" fill="#253A82" mask="url(#path-21-inside-5_335_4806)"/>
<path d="M154.733 166.427C155.582 169.209 159.086 165.674 159.129 162.957C160.979 165.801 165.543 166.099 164.694 163.317C163.845 160.535 160.926 158.975 158.176 159.834C155.425 160.693 153.884 163.645 154.733 166.427Z" fill="#253A82"/>
<path d="M158.265 166.828C159.204 169.904 159.9 169.945 160.67 169.705C161.44 169.464 161.993 169.034 161.054 165.957C160.115 162.88 158.729 160.581 157.959 160.822C157.189 161.062 157.326 163.751 158.265 166.828Z" fill="#253A82"/>
<path d="M176.664 144.644C173.913 145.503 177.407 149.046 180.094 149.09C177.282 150.961 176.988 155.577 179.738 154.719C182.489 153.86 184.03 150.908 183.181 148.126C182.332 145.344 179.414 143.785 176.664 144.644Z" fill="#253A82"/>
<path d="M175.251 149.057C172.595 149.887 172.584 150.582 172.822 151.361C173.059 152.139 173.456 152.707 176.112 151.878C178.768 151.049 180.729 149.745 180.491 148.966C180.254 148.187 177.907 148.228 175.251 149.057Z" fill="#253A82"/>
<path d="M183.494 244.434C180.829 243.332 181.307 248.313 183.356 250.071C180.009 249.713 176.886 253.092 179.55 254.193C182.215 255.295 185.258 254.003 186.347 251.308C187.436 248.613 186.159 245.535 183.494 244.434Z" fill="#253A82"/>
<path d="M179.634 246.938C177.061 245.874 176.616 246.405 176.311 247.159C176.006 247.914 175.956 248.607 178.53 249.671C181.103 250.735 183.437 250.985 183.742 250.231C184.047 249.476 182.208 248.002 179.634 246.938Z" fill="#253A82"/>
<path d="M195.128 232.799C192.484 233.949 196.396 237.069 199.084 236.818C196.5 238.975 196.757 243.569 199.402 242.419C202.046 241.27 203.233 238.184 202.053 235.528C200.873 232.871 197.772 231.65 195.128 232.799Z" fill="#253A82"/>
<path d="M194.246 237.315C191.692 238.425 191.764 239.113 192.095 239.857C192.425 240.601 192.889 241.119 195.442 240.009C197.996 238.899 199.799 237.396 199.468 236.652C199.138 235.908 196.8 236.205 194.246 237.315Z" fill="#253A82"/>
<mask id="path-31-inside-6_335_4806" fill="white">
<ellipse cx="3.15251" cy="3.16009" rx="3.15251" ry="3.16009" transform="matrix(-0.518423 -0.859569 0.847817 -0.523089 165.072 144.327)"/>
</mask>
<path d="M164.483 137.255L166.556 140.693C166.171 140.931 165.652 140.814 165.405 140.404L168.796 138.312L172.188 136.219C170.135 132.816 165.754 131.753 162.409 133.817L164.483 137.255ZM168.796 138.312L165.405 140.404C165.158 139.994 165.292 139.474 165.678 139.236L167.751 142.674L169.825 146.113C173.17 144.049 174.24 139.622 172.188 136.219L168.796 138.312ZM167.751 142.674L165.678 139.236C166.063 138.998 166.582 139.115 166.829 139.525L163.438 141.618L160.047 143.71C162.099 147.113 166.48 148.176 169.825 146.113L167.751 142.674ZM163.438 141.618L166.829 139.525C167.077 139.935 166.942 140.455 166.556 140.693L164.483 137.255L162.409 133.817C159.064 135.88 157.994 140.307 160.047 143.71L163.438 141.618Z" fill="#253A82" mask="url(#path-31-inside-6_335_4806)"/>
<path d="M154.528 151.68C155.377 154.462 158.881 150.928 158.924 148.211C160.774 151.054 165.338 151.352 164.489 148.57C163.64 145.788 160.721 144.229 157.971 145.088C155.22 145.947 153.679 148.898 154.528 151.68Z" fill="#253A82"/>
<path d="M158.062 152.081C159.001 155.158 159.697 155.199 160.467 154.958C161.237 154.718 161.79 154.287 160.851 151.21C159.912 148.134 158.526 145.835 157.756 146.075C156.986 146.316 157.123 149.005 158.062 152.081Z" fill="#253A82"/>
<path d="M176.457 129.898C173.706 130.757 177.2 134.301 179.886 134.345C177.075 136.215 176.781 140.832 179.531 139.973C182.282 139.114 183.823 136.162 182.974 133.38C182.125 130.598 179.207 129.039 176.457 129.898Z" fill="#253A82"/>
<path d="M175.044 134.312C172.388 135.141 172.377 135.836 172.615 136.615C172.852 137.394 173.249 137.962 175.905 137.132C178.561 136.303 180.522 134.999 180.284 134.22C180.047 133.441 177.7 133.482 175.044 134.312Z" fill="#253A82"/>
<mask id="path-37-inside-7_335_4806" fill="white">
<ellipse cx="3.70892" cy="3.75131" rx="3.70892" ry="3.75131" transform="matrix(-1 0 0 1 85.7129 244.155)"/>
</mask>
<path d="M78.2951 247.907H82.2951C82.2951 247.812 82.2075 247.658 82.004 247.658V251.658V255.658C77.7037 255.658 74.2951 252.145 74.2951 247.907H78.2951ZM82.004 251.658V247.658C81.8005 247.658 81.7129 247.812 81.7129 247.907H85.7129H89.7129C89.7129 252.145 86.3042 255.658 82.004 255.658V251.658ZM85.7129 247.907H81.7129C81.7129 248.001 81.8005 248.155 82.004 248.155V244.155V240.155C86.3042 240.155 89.7129 243.669 89.7129 247.907H85.7129ZM82.004 244.155V248.155C82.2075 248.155 82.2951 248.001 82.2951 247.907H78.2951H74.2951C74.2951 243.669 77.7037 240.155 82.004 240.155V244.155Z" fill="#253A82" mask="url(#path-37-inside-7_335_4806)"/>
<mask id="path-39-inside-8_335_4806" fill="white">
<ellipse cx="3.70892" cy="3.75131" rx="3.70892" ry="3.75131" transform="matrix(-1 0 0 1 68.7363 251.472)"/>
</mask>
<path d="M61.3185 255.223H65.3185C65.3185 255.129 65.2309 254.975 65.0274 254.975V258.975V262.975C60.7272 262.975 57.3185 259.461 57.3185 255.223H61.3185ZM65.0274 258.975V254.975C64.8239 254.975 64.7363 255.129 64.7363 255.223H68.7363H72.7363C72.7363 259.461 69.3277 262.975 65.0274 262.975V258.975ZM68.7363 255.223H64.7363C64.7363 255.318 64.8239 255.472 65.0274 255.472V251.472V247.472C69.3277 247.472 72.7363 250.986 72.7363 255.223H68.7363ZM65.0274 251.472V255.472C65.2309 255.472 65.3185 255.318 65.3185 255.223H61.3185H57.3185C57.3185 250.986 60.7272 247.472 65.0274 247.472V251.472Z" fill="#253A82" mask="url(#path-39-inside-8_335_4806)"/>
<path d="M65.4941 229.54C68.2844 228.824 67.126 233.69 64.8553 235.142C68.2183 235.259 70.8466 239.045 68.0563 239.76C65.2659 240.476 62.4303 238.768 61.7228 235.946C61.0153 233.124 62.7038 230.256 65.4941 229.54Z" fill="#253A82"/>
<path d="M68.1034 232.564C70.7982 231.873 71.1652 232.46 71.3633 233.251C71.5614 234.041 71.5156 234.734 68.8208 235.425C66.126 236.117 63.7808 236.036 63.5827 235.246C63.3846 234.456 65.4086 233.255 68.1034 232.564Z" fill="#253A82"/>
<path d="M76.7509 262.436C76.0434 265.258 80.854 264.087 82.2901 261.79C82.4053 265.192 86.1481 267.85 86.8556 265.028C87.5632 262.205 85.8747 259.337 83.0844 258.622C80.294 257.906 77.4585 259.614 76.7509 262.436Z" fill="#253A82"/>
<path d="M79.7401 265.953C79.0568 268.679 79.6378 269.05 80.4191 269.25C81.2004 269.451 81.8861 269.404 82.5694 266.679C83.2527 263.953 83.1733 261.581 82.392 261.381C81.6107 261.18 80.4234 263.228 79.7401 265.953Z" fill="#253A82"/>
<mask id="path-45-inside-9_335_4806" fill="white">
<ellipse cx="3.70892" cy="3.75131" rx="3.70892" ry="3.75131" transform="matrix(-1 0 0 1 90.2227 229.339)"/>
</mask>
<path d="M82.8048 233.091H86.8048C86.8048 232.996 86.7172 232.842 86.5137 232.842V236.842V240.842C82.2135 240.842 78.8048 237.329 78.8048 233.091H82.8048ZM86.5137 236.842V232.842C86.3102 232.842 86.2227 232.996 86.2227 233.091H90.2227H94.2227C94.2227 237.329 90.814 240.842 86.5137 240.842V236.842ZM90.2227 233.091H86.2227C86.2227 233.185 86.3102 233.339 86.5137 233.339V229.339V225.339C90.814 225.339 94.2227 228.853 94.2227 233.091H90.2227ZM86.5137 229.339V233.339C86.7172 233.339 86.8048 233.185 86.8048 233.091H82.8048H78.8048C78.8048 228.853 82.2135 225.339 86.5137 225.339V229.339Z" fill="#253A82" mask="url(#path-45-inside-9_335_4806)"/>
<path d="M91.0058 217.834C93.7962 217.119 92.6377 221.984 90.367 223.437C93.7301 223.553 96.3583 227.339 93.568 228.054C90.7776 228.77 87.9421 227.062 87.2345 224.24C86.527 221.418 88.2155 218.55 91.0058 217.834Z" fill="#253A82"/>
<path d="M93.6151 220.858C96.3099 220.167 96.6769 220.754 96.875 221.545C97.0731 222.335 97.0273 223.028 94.3325 223.72C91.6377 224.411 89.2925 224.33 89.0944 223.54C88.8963 222.75 90.9203 221.549 93.6151 220.858Z" fill="#253A82"/>
<path d="M96.6533 234.925C95.9458 237.747 100.756 236.575 102.192 234.279C102.308 237.68 106.05 240.339 106.758 237.516C107.466 234.694 105.777 231.826 102.987 231.111C100.196 230.395 97.3608 232.103 96.6533 234.925Z" fill="#253A82"/>
<path d="M99.6424 238.442C98.9592 241.168 99.5402 241.539 100.321 241.739C101.103 241.94 101.788 241.893 102.472 239.168C103.155 236.442 103.076 234.07 102.294 233.87C101.513 233.669 100.326 235.717 99.6424 238.442Z" fill="#253A82"/>
<path d="M75.5078 145.349C76.7453 145.349 77.7869 146.369 77.7871 147.677C77.7871 148.984 76.7454 150.006 75.5078 150.006C74.2703 150.006 73.2285 148.984 73.2285 147.677C73.2287 146.37 74.2704 145.349 75.5078 145.349Z" stroke="#253A82" stroke-width="4"/>
<mask id="path-52-inside-10_335_4806" fill="white">
<ellipse cx="88.0621" cy="147.1" rx="3.13832" ry="3.17418"/>
</mask>
<path d="M91.2005 147.1H87.2005C87.2005 146.687 87.5435 146.274 88.0621 146.274V150.274V154.274C92.0473 154.274 95.2005 151.019 95.2005 147.1H91.2005ZM88.0621 150.274V146.274C88.5808 146.274 88.9238 146.687 88.9238 147.1H84.9238H80.9238C80.9238 151.019 84.077 154.274 88.0621 154.274V150.274ZM84.9238 147.1H88.9238C88.9238 147.513 88.5808 147.926 88.0621 147.926V143.926V139.926C84.077 139.926 80.9238 143.181 80.9238 147.1H84.9238ZM88.0621 143.926V147.926C87.5435 147.926 87.2005 147.513 87.2005 147.1H91.2005H95.2005C95.2005 143.181 92.0473 139.926 88.0621 139.926V143.926Z" fill="#253A82" mask="url(#path-52-inside-10_335_4806)"/>
<path d="M65.6035 151.91C68.3938 151.195 67.2353 156.06 64.9647 157.513C68.3277 157.629 70.956 161.415 68.1656 162.13C65.3753 162.846 62.5397 161.138 61.8322 158.316C61.1247 155.494 62.8131 152.626 65.6035 151.91Z" fill="#253A82"/>
<path d="M69.0799 154.934C71.7747 154.243 72.1418 154.831 72.3399 155.621C72.538 156.411 72.4921 157.105 69.7973 157.796C67.1025 158.487 64.7574 158.407 64.5593 157.616C64.3612 156.826 66.3851 155.625 69.0799 154.934Z" fill="#253A82"/>
<path d="M78.9297 140.121C76.4135 141.535 76.3017 136.532 78.1291 134.54C74.8486 135.298 71.3497 132.319 73.8659 130.905C76.3821 129.49 79.5554 130.407 80.9538 132.952C82.3521 135.497 81.4459 138.706 78.9297 140.121Z" fill="#253A82"/>
<path d="M74.803 138.098C72.373 139.464 71.8694 138.991 71.4779 138.278C71.0863 137.566 70.9551 136.883 73.3852 135.517C75.8152 134.151 78.1026 133.622 78.4941 134.334C78.8856 135.047 77.2331 136.732 74.803 138.098Z" fill="#253A82"/>
<path d="M95.218 164.399C95.8021 165.552 95.3438 166.945 94.232 167.521C93.1203 168.096 91.7362 167.659 91.1521 166.505C90.5681 165.352 91.0257 163.96 92.1373 163.384C93.249 162.808 94.6339 163.246 95.218 164.399Z" stroke="#253A82" stroke-width="4"/>
<mask id="path-59-inside-11_335_4806" fill="white">
<ellipse cx="3.16676" cy="3.1458" rx="3.16676" ry="3.1458" transform="matrix(0.451773 0.892133 -0.887929 0.459981 100.777 172.218)"/>
</mask>
<path d="M100.845 179.315L99.0383 175.747C99.4794 175.518 99.9767 175.709 100.173 176.097L96.6215 177.937L93.0698 179.777C94.8466 183.286 99.1261 184.711 102.653 182.884L100.845 179.315ZM96.6215 177.937L100.173 176.097C100.37 176.485 100.232 177.005 99.7912 177.234L97.9841 173.665L96.177 170.096C92.6506 171.923 91.293 176.268 93.0698 179.777L96.6215 177.937ZM97.9841 173.665L99.7912 177.234C99.3501 177.462 98.8529 177.271 98.6563 176.883L102.208 175.043L105.76 173.203C103.983 169.695 99.7034 168.27 96.177 170.096L97.9841 173.665ZM102.208 175.043L98.6563 176.883C98.4597 176.495 98.5972 175.975 99.0383 175.747L100.845 179.315L102.653 182.884C106.179 181.057 107.537 176.712 105.76 173.203L102.208 175.043Z" fill="#253A82" mask="url(#path-59-inside-11_335_4806)"/>
<path d="M84.9449 158.466C86.8466 160.652 82.0369 161.827 79.7235 160.445C81.1541 163.526 79.021 167.618 77.1192 165.432C75.2175 163.246 75.4276 159.915 77.5886 157.992C79.7496 156.068 83.0431 156.281 84.9449 158.466Z" fill="#253A82"/>
<path d="M83.8702 162.975C85.7069 165.086 85.3571 165.684 84.752 166.223C84.1469 166.762 83.5157 167.036 81.679 164.926C79.8424 162.815 78.844 160.667 79.4491 160.128C80.0542 159.59 82.0336 160.864 83.8702 162.975Z" fill="#253A82"/>
<path d="M94.8992 157.586C92.5075 155.965 96.8595 153.584 99.4456 154.321C97.2828 151.713 98.3092 147.205 100.701 148.826C103.092 150.446 103.733 153.721 102.13 156.14C100.528 158.559 97.2908 159.206 94.8992 157.586Z" fill="#253A82"/>
<path d="M94.7988 152.948C92.4891 151.383 92.6758 150.714 93.1244 150.037C93.573 149.359 94.1136 148.93 96.4233 150.495C98.733 152.06 100.242 153.878 99.7932 154.555C99.3447 155.232 97.1086 154.513 94.7988 152.948Z" fill="#253A82"/>
<path d="M116.543 104.748C119.517 104.403 123.135 104.072 126.471 104.008C129.819 103.944 133.605 104.278 136.731 104.661L126.449 120.773L116.543 104.748Z" fill="#FFF6E4" stroke="#FFF6E4" stroke-width="8"/>
<path d="M229 -50L238.842 -11.7293L266.5 -39.9519L255.888 -1.88774L293.952 -12.5L265.729 15.1584L304 25L265.729 34.8416L293.952 62.5L255.888 51.8877L266.5 89.9519L238.842 61.7293L229 100L219.158 61.7293L191.5 89.9519L202.112 51.8877L164.048 62.5L192.271 34.8416L154 25L192.271 15.1584L164.048 -12.5L202.112 -1.88774L191.5 -39.9519L219.158 -11.7293L229 -50Z" fill="#253A82"/>
<path d="M27 297L36.8416 335.271L64.5 307.048L53.8877 345.112L91.9519 334.5L63.7293 362.158L102 372L63.7293 381.842L91.9519 409.5L53.8877 398.888L64.5 436.952L36.8416 408.729L27 447L17.1584 408.729L-10.5 436.952L0.112263 398.888L-37.9519 409.5L-9.72933 381.842L-48 372L-9.72933 362.158L-37.9519 334.5L0.112263 345.112L-10.5 307.048L17.1584 335.271L27 297Z" fill="#253A82"/>
</g>
<defs>
<clipPath id="clip0_335_4806">
<rect width="253" height="395" rx="37" fill="white"/>
</clipPath>
</defs>
</svg>
