<svg width="425" height="442" viewBox="0 0 425 442" fill="none" xmlns="http://www.w3.org/2000/svg">
<rect x="92.001" y="33.9998" width="240" height="373" rx="37" fill="#AB9DFF"/>
<rect x="358.815" y="54.1558" width="239.3" height="373.275" rx="37" transform="rotate(74 358.815 54.1558)" fill="#253A82"/>
<rect x="21.0459" y="108.64" width="239.3" height="373.275" rx="37" transform="rotate(-27 21.0459 108.64)" fill="#FFB2F2"/>
<rect x="128.074" y="15.5759" width="239.3" height="373.275" rx="37" transform="rotate(10.3106 128.074 15.5759)" fill="#C0E0FF"/>
<path d="M215.947 197.914C211.666 191.099 203.947 189.383 196.732 191.616C189.513 193.85 182.949 200.012 181.174 208.738C177.585 226.379 188.877 243.792 206.388 247.635C223.899 251.479 241.007 240.299 244.596 222.659C246.372 213.925 242.961 205.925 237.341 201.05C231.72 196.174 223.948 194.46 216.944 198.188L216.325 198.517L215.947 197.914Z" fill="#88A2FF" stroke="#88A2FF" stroke-width="1.51577"/>
<path d="M216.569 199.018L218.144 186.491L211.142 180.59" stroke="#88A2FF" stroke-width="4.54732" stroke-linecap="round"/>
</svg>
