<svg width="253" height="395" viewBox="0 0 253 395" fill="none" xmlns="http://www.w3.org/2000/svg">
<g clip-path="url(#clip0_403_376)">
<rect width="253" height="395" rx="37" fill="#88A2FF"/>
<path d="M148.708 171.953C148.045 159.933 139.182 152.124 128.199 149.833C117.211 147.54 104.245 150.822 95.6534 160.889C78.3458 181.17 80.4809 211.836 100.414 229.383C120.347 246.93 150.537 244.72 167.844 224.439C176.441 214.366 177.767 201.507 173.969 191.118C170.171 180.729 161.282 172.871 149.448 172.675L148.747 172.664L148.708 171.953Z" fill="#253A82" stroke="#253A82" stroke-width="1.51577"/>
<path d="M148.371 173.835L159.32 158.844L154.516 146.267" stroke="#253A82" stroke-width="4.54732" stroke-linecap="round"/>
<path d="M31.5 -94L47.8371 -30.4707L93.75 -77.3202L76.1336 -14.1336L139.32 -31.75L92.4707 14.1629L156 30.5L92.4707 46.8371L139.32 92.75L76.1336 75.1336L93.75 138.32L47.8371 91.4707L31.5 155L15.1629 91.4707L-30.75 138.32L-13.1336 75.1336L-76.3202 92.75L-29.4707 46.8371L-93 30.5L-29.4707 14.1629L-76.3202 -31.75L-13.1336 -14.1336L-30.75 -77.3202L15.1629 -30.4707L31.5 -94Z" fill="#C0E0FF"/>
<path d="M214.5 260L230.837 323.529L276.75 276.68L259.134 339.866L322.32 322.25L275.471 368.163L339 384.5L275.471 400.837L322.32 446.75L259.134 429.134L276.75 492.32L230.837 445.471L214.5 509L198.163 445.471L152.25 492.32L169.866 429.134L106.68 446.75L153.529 400.837L90 384.5L153.529 368.163L106.68 322.25L169.866 339.866L152.25 276.68L198.163 323.529L214.5 260Z" fill="#C0E0FF"/>
</g>
<defs>
<clipPath id="clip0_403_376">
<rect width="253" height="395" rx="37" fill="white"/>
</clipPath>
</defs>
</svg>
