<svg width="647" height="681" viewBox="0 0 647 681" fill="none" xmlns="http://www.w3.org/2000/svg">
<rect x="90.667" y="313.373" width="465" height="367" fill="#253A82"/>
<path d="M555.667 321.873C555.667 258.088 531.172 196.916 487.569 151.813C443.967 106.711 384.83 81.3726 323.167 81.3726C261.504 81.3726 202.367 106.711 158.765 151.813C115.162 196.916 90.667 258.088 90.667 321.873L323.167 321.873H555.667Z" fill="#253A82"/>
<path d="M133.302 295.907C131.588 302.736 125.096 306.517 118.392 304.834C111.936 303.214 107.999 296.815 109.713 289.987C111.396 283.283 117.856 279.626 124.312 281.246C131.016 282.929 134.984 289.203 133.302 295.907ZM144.959 258.003C142.174 264.469 135.16 267.162 128.812 264.427C122.699 261.793 119.838 254.847 122.624 248.381C125.358 242.033 132.321 239.458 138.434 242.091C144.782 244.826 147.694 251.655 144.959 258.003ZM162.631 222.534C158.792 228.435 151.423 229.902 145.63 226.133C140.05 222.503 138.406 215.172 142.245 209.271C146.015 203.477 153.313 202.117 158.892 205.747C164.686 209.516 166.4 216.74 162.631 222.534ZM186.148 190.682C181.306 195.793 173.794 195.905 168.777 191.152C163.944 186.574 163.651 179.067 168.492 173.956C173.246 168.938 180.67 168.919 185.502 173.496C190.52 178.25 190.902 185.664 186.148 190.682ZM215.131 163.778C209.383 167.842 201.994 166.482 198.004 160.838C194.162 155.403 195.344 147.984 201.092 143.92C206.736 139.93 214.021 141.364 217.863 146.799C221.853 152.443 220.775 159.788 215.131 163.778ZM248.878 143.253C242.404 146.02 235.466 143.139 232.75 136.783C230.134 130.662 232.847 123.656 239.321 120.89C245.677 118.174 252.498 121.105 255.113 127.226C257.83 133.582 255.234 140.537 248.878 143.253ZM286.191 130.435C279.265 131.696 273.139 127.346 271.902 120.546C270.71 113.997 274.911 107.769 281.837 106.508C288.638 105.271 294.637 109.643 295.829 116.192C297.066 122.992 292.992 129.198 286.191 130.435ZM325.402 126.304C318.371 125.951 313.399 120.318 313.746 113.415C314.08 106.767 319.591 101.661 326.622 102.014C333.525 102.361 338.369 107.987 338.035 114.634C337.689 121.538 332.306 126.65 325.402 126.304ZM364.529 131.206C357.76 129.269 354.193 122.657 356.094 116.012C357.925 109.613 364.45 105.887 371.218 107.824C377.863 109.725 381.307 116.302 379.476 122.701C377.575 129.347 371.174 133.107 364.529 131.206ZM401.599 144.742C395.413 141.38 393.37 134.15 396.671 128.078C399.85 122.23 407.028 120.012 413.213 123.375C419.286 126.675 421.217 133.844 418.038 139.692C414.737 145.765 407.672 148.043 401.599 144.742ZM434.975 165.89C429.605 161.338 429.077 153.844 433.546 148.571C437.849 143.493 445.329 142.785 450.699 147.337C455.972 151.806 456.402 159.218 452.099 164.295C447.63 169.568 440.248 170.359 434.975 165.89ZM463.512 193.29C459.099 187.805 459.997 180.346 465.382 176.013C470.567 171.84 478.046 172.558 482.459 178.043C486.793 183.428 485.814 190.787 480.629 194.96C475.244 199.293 467.846 198.675 463.512 193.29ZM486.528 225.52C483.144 219.346 485.336 212.16 491.398 208.838C497.234 205.639 504.471 207.657 507.855 213.831C511.177 219.892 508.923 226.966 503.087 230.165C497.025 233.487 489.85 231.581 486.528 225.52ZM503.669 261.257C501.352 254.61 504.702 247.885 511.229 245.61C517.514 243.419 524.318 246.605 526.634 253.253C528.909 259.78 525.518 266.384 519.233 268.575C512.706 270.85 505.944 267.784 503.669 261.257ZM515.128 299.287C513.698 292.394 517.897 286.164 524.665 284.76C531.182 283.409 537.512 287.456 538.941 294.349C540.344 301.117 536.12 307.222 529.603 308.574C522.835 309.977 516.531 306.055 515.128 299.287Z" fill="#FFF6E4"/>
<path d="M555.667 512.373H612.667V429.373" stroke="#FFF6E4" stroke-width="18"/>
<rect x="122.667" y="360.373" width="127" height="191" rx="23" fill="#FFF6E4"/>
<rect x="260.667" y="360.373" width="126" height="191" rx="23" fill="#FFF6E4"/>
<rect x="397.667" y="360.373" width="127" height="191" rx="23" fill="#FFF6E4"/>
</svg>
