<svg width="140" height="141" viewBox="0 0 140 141" fill="none" xmlns="http://www.w3.org/2000/svg">
<path d="M59.7759 108.097C57.3874 122.855 43.038 132.809 27.7256 130.331C12.4133 127.852 1.93646 113.88 4.32499 99.1225C6.71351 84.3649 18.9855 71.9054 35.6405 81.4295C54.6167 78.526 62.1644 93.3398 59.7759 108.097Z" fill="#FFF6E4"/>
<path d="M128.558 85.6024C134.877 102.577 125.721 121.653 108.108 128.21C90.495 134.766 71.0942 126.32 64.7753 109.346C58.4564 92.3706 63.9241 71.8993 87.1696 71.9607C105.42 57.5417 122.239 68.6274 128.558 85.6024Z" fill="#FFF6E4"/>
<path d="M35.3428 82.6913C35.3428 82.6913 40.4472 59.8916 44.871 50.0231C49.2948 40.1546 73.7959 17.3549 73.7959 17.3549C73.7959 17.3549 65.6289 44.2381 75.8377 54.1066C86.0465 63.9751 88.0883 73.5034 88.0883 73.5034" stroke="#FFF6E4" stroke-width="4" stroke-linecap="round"/>
<path d="M103.142 7.49625C103.142 7.49625 99.0249 17.593 90.4765 20.8009C81.928 24.0087 72.1851 19.1129 72.1851 19.1129C72.1851 19.1129 76.302 9.01616 84.8504 5.8083C93.3989 2.60045 103.142 7.49625 103.142 7.49625Z" fill="#FFF6E4"/>
</svg>
