<svg width="255" height="235" viewBox="0 0 255 235" fill="none" xmlns="http://www.w3.org/2000/svg">
<path d="M111.001 21.0361L42.0744 66.1844C40.782 67.031 40.8966 68.9607 42.28 69.6484L118.475 107.523C119.13 107.849 119.912 107.791 120.512 107.371L186.85 60.9358C188.093 60.0655 187.952 58.1819 186.593 57.5063L112.987 20.9182C112.351 20.6021 111.595 20.647 111.001 21.0361Z" fill="#88A2FF"/>
<path d="M109.72 27.7876L59.935 60.5601C56.0688 63.1051 56.4185 68.8842 60.5634 70.9445L115.629 98.3164C117.6 99.2964 119.95 99.118 121.751 97.8515L169.671 64.1518C173.39 61.5362 172.962 55.8951 168.89 53.8711L115.69 27.4264C113.778 26.4757 111.504 26.6133 109.72 27.7876Z" fill="#FFF6E4"/>
<ellipse cx="117.361" cy="61.8602" rx="6.16087" ry="8.74174" transform="rotate(-93.5635 117.361 61.8602)" fill="#88A2FF"/>
<ellipse cx="85.3726" cy="64.8284" rx="6.16087" ry="8.74174" transform="rotate(-93.5635 85.3726 64.8284)" fill="#88A2FF"/>
<ellipse cx="114.543" cy="39.5042" rx="6.16087" ry="8.74174" transform="rotate(-93.5635 114.543 39.5042)" fill="#88A2FF"/>
<ellipse cx="116.037" cy="82.9606" rx="6.16087" ry="8.74174" transform="rotate(-93.5635 116.037 82.9606)" fill="#88A2FF"/>
<ellipse cx="145.203" cy="57.6385" rx="6.16087" ry="8.74174" transform="rotate(-93.5635 145.203 57.6385)" fill="#88A2FF"/>
<path d="M39.2919 161.068L33.6702 78.8634C33.5647 77.3221 35.1723 76.2483 36.5557 76.936L112.75 114.811C113.406 115.137 113.831 115.795 113.859 116.527L116.892 197.445C116.949 198.961 115.362 199.986 114.003 199.311L40.397 162.723C39.761 162.406 39.3403 161.777 39.2919 161.068Z" fill="#88A2FF"/>
<path d="M124.884 113.313L193.364 67.443C194.648 66.5832 196.38 67.4415 196.473 68.9836L201.624 153.87C201.67 154.625 201.285 155.342 200.631 155.721L130.224 196.543C128.921 197.299 127.283 196.398 127.222 194.894L123.998 115.055C123.97 114.36 124.306 113.7 124.884 113.313Z" fill="#88A2FF"/>
<ellipse cx="183.875" cy="92.1532" rx="6.23266" ry="8.8436" transform="rotate(25.6745 183.875 92.1532)" fill="#FFF6E4"/>
<ellipse cx="163.761" cy="132.62" rx="6.23266" ry="8.8436" transform="rotate(25.6745 163.761 132.62)" fill="#FFF6E4"/>
<ellipse cx="143.648" cy="173.084" rx="6.23266" ry="8.8436" transform="rotate(25.6745 143.648 173.084)" fill="#FFF6E4"/>
<ellipse cx="59.4959" cy="116.717" rx="6.23266" ry="8.8436" transform="rotate(-28.2386 59.4959 116.717)" fill="#FFF6E4"/>
<ellipse cx="84.741" cy="158.99" rx="6.23266" ry="8.8436" transform="rotate(-28.2386 84.741 158.99)" fill="#FFF6E4"/>
</svg>
