<svg width="947" height="764" viewBox="0 0 947 764" fill="none" xmlns="http://www.w3.org/2000/svg">
<path d="M678 0L687.842 38.2707L715.5 10.0481L704.888 48.1123L742.952 37.5L714.729 65.1584L753 75L714.729 84.8416L742.952 112.5L704.888 101.888L715.5 139.952L687.842 111.729L678 150L668.158 111.729L640.5 139.952L651.112 101.888L613.048 112.5L641.271 84.8416L603 75L641.271 65.1584L613.048 37.5L651.112 48.1123L640.5 10.0481L668.158 38.2707L678 0Z" fill="#FFF6E4"/>
<path d="M473 614L482.842 652.271L510.5 624.048L499.888 662.112L537.952 651.5L509.729 679.158L548 689L509.729 698.842L537.952 726.5L499.888 715.888L510.5 753.952L482.842 725.729L473 764L463.158 725.729L435.5 753.952L446.112 715.888L408.048 726.5L436.271 698.842L398 689L436.271 679.158L408.048 651.5L446.112 662.112L435.5 624.048L463.158 652.271L473 614Z" fill="#FFF6E4"/>
<circle cx="883" cy="75" r="52" fill="#FFF6E4"/>
<circle cx="883" cy="75" r="62.5" stroke="#FFF6E4" stroke-width="3"/>
<path d="M883 66C880.113 66 873 48.3907 873 40.6867C873 32.9826 892.954 33.2272 893 40.6867C893.045 48.1462 885.887 66 883 66Z" fill="#AB9DFF"/>
<path d="M890.617 82.6175C892.757 80.4779 910.247 87.4238 915.593 92.7693C920.938 98.1148 905.978 112.735 900.769 107.593C895.56 102.451 888.478 84.7572 890.617 82.6175Z" fill="#AB9DFF"/>
<path d="M875.953 67.9533C873.813 70.0929 856.323 63.147 850.977 57.8015C845.632 52.456 860.592 37.8354 865.801 42.9776C871.011 48.1198 878.093 65.8136 875.953 67.9533Z" fill="#AB9DFF"/>
<path d="M875.953 82.6175C873.813 80.4779 856.323 87.4238 850.977 92.7693C845.632 98.1148 860.592 112.735 865.801 107.593C871.011 102.451 878.093 84.7572 875.953 82.6175Z" fill="#AB9DFF"/>
<path d="M890.617 67.9533C892.757 70.0929 910.247 63.147 915.593 57.8015C920.938 52.456 905.978 37.8354 900.769 42.9776C895.56 48.1198 888.478 65.8136 890.617 67.9533Z" fill="#AB9DFF"/>
<path d="M883 85C885.887 85 893 102.609 893 110.313C893 118.017 873.046 117.773 873 110.313C872.955 102.854 880.113 85 883 85Z" fill="#AB9DFF"/>
<path d="M893 74.9999C893 72.1132 910.609 65 918.313 65C926.017 65 925.773 84.9545 918.313 84.9998C910.854 85.0451 893 77.8866 893 74.9999Z" fill="#AB9DFF"/>
<path d="M873 74.9999C873 72.1132 855.391 65 847.687 65C839.983 65 840.227 84.9545 847.687 84.9998C855.146 85.0451 873 77.8866 873 74.9999Z" fill="#AB9DFF"/>
<circle cx="64" cy="75" r="52" fill="#FFF6E4"/>
<circle cx="64" cy="75" r="62.5" stroke="#FFF6E4" stroke-width="3"/>
<path d="M63.9999 66C61.1132 66 54 48.3907 54 40.6867C54 32.9826 73.9545 33.2272 73.9998 40.6867C74.0451 48.1462 66.8866 66 63.9999 66Z" fill="#AB9DFF"/>
<path d="M71.6172 82.6175C73.7569 80.4779 91.2474 87.4238 96.5929 92.7693C101.938 98.1148 86.9783 112.735 81.769 107.593C76.5596 102.451 69.4776 84.7572 71.6172 82.6175Z" fill="#AB9DFF"/>
<path d="M56.9531 67.9533C54.8135 70.0929 37.3229 63.147 31.9774 57.8015C26.6319 52.456 41.592 37.8354 46.8013 42.9776C52.0107 48.1198 59.0928 65.8136 56.9531 67.9533Z" fill="#AB9DFF"/>
<path d="M56.9531 82.6175C54.8135 80.4779 37.3229 87.4238 31.9774 92.7693C26.6319 98.1148 41.592 112.735 46.8013 107.593C52.0107 102.451 59.0928 84.7572 56.9531 82.6175Z" fill="#AB9DFF"/>
<path d="M71.6172 67.9533C73.7569 70.0929 91.2474 63.147 96.5929 57.8015C101.938 52.456 86.9783 37.8354 81.769 42.9776C76.5596 48.1198 69.4776 65.8136 71.6172 67.9533Z" fill="#AB9DFF"/>
<path d="M64.0001 85C66.8868 85 74 102.609 74 110.313C74 118.017 54.0455 117.773 54.0002 110.313C53.9549 102.854 61.1134 85 64.0001 85Z" fill="#AB9DFF"/>
<path d="M74 74.9999C74 72.1132 91.6093 65 99.3133 65C107.017 65 106.773 84.9545 99.3133 84.9998C91.8538 85.0451 74 77.8866 74 74.9999Z" fill="#AB9DFF"/>
<path d="M54 74.9999C54 72.1132 36.3907 65 28.6867 65C20.9826 65 21.2272 84.9545 28.6867 84.9998C36.1462 85.0451 54 77.8866 54 74.9999Z" fill="#AB9DFF"/>
<circle cx="269" cy="689" r="52" fill="#FFF6E4"/>
<circle cx="269" cy="689" r="62.5" stroke="#FFF6E4" stroke-width="3"/>
<path d="M269 680C266.113 680 259 662.391 259 654.687C259 646.983 278.954 647.227 279 654.687C279.045 662.146 271.887 680 269 680Z" fill="#AB9DFF"/>
<path d="M276.617 696.618C278.757 694.478 296.247 701.424 301.593 706.769C306.938 712.115 291.978 726.735 286.769 721.593C281.56 716.451 274.478 698.757 276.617 696.618Z" fill="#AB9DFF"/>
<path d="M261.953 681.953C259.813 684.093 242.323 677.147 236.977 671.801C231.632 666.456 246.592 651.835 251.801 656.978C257.011 662.12 264.093 679.814 261.953 681.953Z" fill="#AB9DFF"/>
<path d="M261.953 696.618C259.813 694.478 242.323 701.424 236.977 706.769C231.632 712.115 246.592 726.735 251.801 721.593C257.011 716.451 264.093 698.757 261.953 696.618Z" fill="#AB9DFF"/>
<path d="M276.617 681.953C278.757 684.093 296.247 677.147 301.593 671.801C306.938 666.456 291.978 651.835 286.769 656.978C281.56 662.12 274.478 679.814 276.617 681.953Z" fill="#AB9DFF"/>
<path d="M269 699C271.887 699 279 716.609 279 724.313C279 732.017 259.046 731.773 259 724.313C258.955 716.854 266.113 699 269 699Z" fill="#AB9DFF"/>
<path d="M279 689C279 686.113 296.609 679 304.313 679C312.017 679 311.773 698.954 304.313 699C296.854 699.045 279 691.887 279 689Z" fill="#AB9DFF"/>
<path d="M259 689C259 686.113 241.391 679 233.687 679C225.983 679 226.227 698.954 233.687 699C241.146 699.045 259 691.887 259 689Z" fill="#AB9DFF"/>
</svg>
