<svg width="178" height="200" viewBox="0 0 178 200" fill="none" xmlns="http://www.w3.org/2000/svg">
<circle cx="51.8419" cy="51.8419" r="51.153" transform="matrix(-0.934286 0.356524 0.356524 0.934286 128.82 33.5134)" fill="#C0E0FF" stroke="#88A2FF" stroke-width="1.37762"/>
<circle cx="77.4578" cy="77.4578" r="76.769" transform="matrix(-0.934286 0.356524 0.356524 0.934286 144.756 0.00646973)" fill="#C0E0FF" stroke="#88A2FF" stroke-width="1.37762"/>
<circle cx="54.2815" cy="54.2815" r="50.8374" transform="matrix(-0.934286 0.356524 0.356524 0.934286 130.186 30.3633)" fill="#C0E0FF" stroke="#88A2FF" stroke-width="6.88811"/>
<circle cx="77.4578" cy="77.4578" r="74.7026" transform="matrix(-0.934286 0.356524 0.356524 0.934286 144.736 0.00726318)" fill="#C0E0FF" stroke="#88A2FF" stroke-width="5.51049"/>
<mask id="path-5-inside-1_403_165" fill="white">
<path d="M89.7145 23.2166C76.532 24.9799 64.0257 30.1079 53.3999 38.1066L68.3901 58.0201C75.5967 52.5953 84.0786 49.1174 93.0191 47.9215L89.7145 23.2166Z"/>
</mask>
<path d="M89.7145 23.2166C76.532 24.9799 64.0257 30.1079 53.3999 38.1066L68.3901 58.0201C75.5967 52.5953 84.0786 49.1174 93.0191 47.9215L89.7145 23.2166Z" fill="#C0E0FF" stroke="#88A2FF" stroke-width="93.6783" mask="url(#path-5-inside-1_403_165)"/>
<mask id="path-6-inside-2_403_165" fill="white">
<path d="M154.425 44.8911C144.964 35.5434 133.255 28.7893 120.427 25.2791L113.849 49.3204C122.549 51.701 130.49 56.2817 136.906 62.6214L154.425 44.8911Z"/>
</mask>
<path d="M154.425 44.8911C144.964 35.5434 133.255 28.7893 120.427 25.2791L113.849 49.3204C122.549 51.701 130.49 56.2817 136.906 62.6214L154.425 44.8911Z" fill="#C0E0FF" stroke="#88A2FF" stroke-width="93.6783" mask="url(#path-6-inside-2_403_165)"/>
<mask id="path-7-inside-3_403_165" fill="white">
<path d="M177.274 105.085C178.149 91.8138 175.592 78.541 169.849 66.5449L147.367 77.3073C151.262 85.4432 152.996 94.445 152.403 103.446L177.274 105.085Z"/>
</mask>
<path d="M177.274 105.085C178.149 91.8138 175.592 78.541 169.849 66.5449L147.367 77.3073C151.262 85.4432 152.996 94.445 152.403 103.446L177.274 105.085Z" fill="#C0E0FF" stroke="#88A2FF" stroke-width="93.6783" mask="url(#path-7-inside-3_403_165)"/>
<mask id="path-8-inside-4_403_165" fill="white">
<path d="M149.204 159.8C159.473 151.349 167.394 140.395 172.202 127.995L148.963 118.984C145.702 127.394 140.33 134.822 133.365 140.554L149.204 159.8Z"/>
</mask>
<path d="M149.204 159.8C159.473 151.349 167.394 140.395 172.202 127.995L148.963 118.984C145.702 127.394 140.33 134.822 133.365 140.554L149.204 159.8Z" fill="#C0E0FF" stroke="#88A2FF" stroke-width="93.6783" mask="url(#path-8-inside-4_403_165)"/>
<mask id="path-9-inside-5_403_165" fill="white">
<path d="M33.1351 60.8636C26.4168 72.3419 22.7672 85.3567 22.5378 98.6546L47.459 99.0845C47.6146 90.0657 50.0898 81.2389 54.6462 73.4542L33.1351 60.8636Z"/>
</mask>
<path d="M33.1351 60.8636C26.4168 72.3419 22.7672 85.3567 22.5378 98.6546L47.459 99.0845C47.6146 90.0657 50.0898 81.2389 54.6462 73.4542L33.1351 60.8636Z" fill="#C0E0FF" stroke="#88A2FF" stroke-width="93.6783" mask="url(#path-9-inside-5_403_165)"/>
<mask id="path-10-inside-6_403_165" fill="white">
<path d="M79.9116 174.802C92.7572 178.249 106.274 178.33 119.16 175.037L112.989 150.888C104.25 153.121 95.0827 153.066 86.3707 150.729L79.9116 174.802Z"/>
</mask>
<path d="M79.9116 174.802C92.7572 178.249 106.274 178.33 119.16 175.037L112.989 150.888C104.25 153.121 95.0827 153.066 86.3707 150.729L79.9116 174.802Z" fill="#C0E0FF" stroke="#88A2FF" stroke-width="93.6783" mask="url(#path-10-inside-6_403_165)"/>
<mask id="path-11-inside-7_403_165" fill="white">
<path d="M28.9305 130.831C34.2259 143.031 42.5735 153.662 53.1693 161.7L68.2337 141.843C61.0475 136.391 55.3861 129.181 51.7947 120.907L28.9305 130.831Z"/>
</mask>
<path d="M28.9305 130.831C34.2259 143.031 42.5735 153.662 53.1693 161.7L68.2337 141.843C61.0475 136.391 55.3861 129.181 51.7947 120.907L28.9305 130.831Z" fill="#C0E0FF" stroke="#88A2FF" stroke-width="93.6783" mask="url(#path-11-inside-7_403_165)"/>
<circle cx="53.6716" cy="53.6716" r="48.8499" transform="matrix(-0.934286 0.356524 0.356524 0.934286 130.286 30.3789)" fill="#C0E0FF" stroke="#88A2FF" stroke-width="9.64335"/>
</svg>
