<svg width="167" height="167" viewBox="0 0 167 167" fill="none" xmlns="http://www.w3.org/2000/svg">
<circle cx="43.287" cy="43.287" r="42.5982" transform="matrix(-0.934286 0.356524 0.356524 0.934286 107.562 27.983)" fill="#C0E0FF" stroke="#88A2FF" stroke-width="1.37762"/>
<circle cx="64.6758" cy="64.6758" r="63.987" transform="matrix(-0.934286 0.356524 0.356524 0.934286 120.868 0.00518799)" fill="#C0E0FF" stroke="#88A2FF" stroke-width="1.37762"/>
<circle cx="45.324" cy="45.324" r="41.88" transform="matrix(-0.934286 0.356524 0.356524 0.934286 108.701 25.3528)" fill="#C0E0FF" stroke="#88A2FF" stroke-width="6.88811"/>
<circle cx="64.6759" cy="64.6759" r="61.9206" transform="matrix(-0.934286 0.356524 0.356524 0.934286 120.852 0.00604248)" fill="#C0E0FF" stroke="#88A2FF" stroke-width="5.51049"/>
<mask id="path-5-inside-1_403_151" fill="white">
<path d="M74.9093 19.3854C63.9022 20.8577 53.4597 25.1395 44.5873 31.8183L57.1039 48.4457C63.1212 43.9161 70.2035 41.0121 77.6686 40.0136L74.9093 19.3854Z"/>
</mask>
<path d="M74.9093 19.3854C63.9022 20.8577 53.4597 25.1395 44.5873 31.8183L57.1039 48.4457C63.1212 43.9161 70.2035 41.0121 77.6686 40.0136L74.9093 19.3854Z" fill="#C0E0FF" stroke="#88A2FF" stroke-width="93.6783" mask="url(#path-5-inside-1_403_151)"/>
<mask id="path-6-inside-2_403_151" fill="white">
<path d="M128.941 37.4832C121.041 29.6781 111.265 24.0385 100.554 21.1076L95.0609 41.1816C102.326 43.1693 108.956 46.9942 114.314 52.2877L128.941 37.4832Z"/>
</mask>
<path d="M128.941 37.4832C121.041 29.6781 111.265 24.0385 100.554 21.1076L95.0609 41.1816C102.326 43.1693 108.956 46.9942 114.314 52.2877L128.941 37.4832Z" fill="#C0E0FF" stroke="#88A2FF" stroke-width="93.6783" mask="url(#path-6-inside-2_403_151)"/>
<mask id="path-7-inside-3_403_151" fill="white">
<path d="M148.02 87.7439C148.75 76.6628 146.615 65.5803 141.82 55.5637L123.048 64.5501C126.3 71.3435 127.749 78.8598 127.253 86.3751L148.02 87.7439Z"/>
</mask>
<path d="M148.02 87.7439C148.75 76.6628 146.615 65.5803 141.82 55.5637L123.048 64.5501C126.3 71.3435 127.749 78.8598 127.253 86.3751L148.02 87.7439Z" fill="#C0E0FF" stroke="#88A2FF" stroke-width="93.6783" mask="url(#path-7-inside-3_403_151)"/>
<mask id="path-8-inside-4_403_151" fill="white">
<path d="M124.582 133.43C133.157 126.373 139.77 117.228 143.785 106.874L124.381 99.3492C121.658 106.371 117.173 112.574 111.357 117.36L124.582 133.43Z"/>
</mask>
<path d="M124.582 133.43C133.157 126.373 139.77 117.228 143.785 106.874L124.381 99.3492C121.658 106.371 117.173 112.574 111.357 117.36L124.582 133.43Z" fill="#C0E0FF" stroke="#88A2FF" stroke-width="93.6783" mask="url(#path-8-inside-4_403_151)"/>
<mask id="path-9-inside-5_403_151" fill="white">
<path d="M27.6666 50.8199C22.0569 60.4041 19.0096 71.2712 18.818 82.3747L39.6268 82.7337C39.7567 75.2032 41.8235 67.833 45.628 61.3329L27.6666 50.8199Z"/>
</mask>
<path d="M27.6666 50.8199C22.0569 60.4041 19.0096 71.2712 18.818 82.3747L39.6268 82.7337C39.7567 75.2032 41.8235 67.833 45.628 61.3329L27.6666 50.8199Z" fill="#C0E0FF" stroke="#88A2FF" stroke-width="93.6783" mask="url(#path-9-inside-5_403_151)"/>
<mask id="path-10-inside-6_403_151" fill="white">
<path d="M66.7241 145.957C77.4499 148.835 88.736 148.902 99.4955 146.153L94.3433 125.989C87.0461 127.853 79.3917 127.808 72.1173 125.856L66.7241 145.957Z"/>
</mask>
<path d="M66.7241 145.957C77.4499 148.835 88.736 148.902 99.4955 146.153L94.3433 125.989C87.0461 127.853 79.3917 127.808 72.1173 125.856L66.7241 145.957Z" fill="#C0E0FF" stroke="#88A2FF" stroke-width="93.6783" mask="url(#path-10-inside-6_403_151)"/>
<mask id="path-11-inside-7_403_151" fill="white">
<path d="M24.1559 109.241C28.5774 119.428 35.5475 128.305 44.3948 135.017L56.9733 118.436C50.9729 113.884 46.2457 107.864 43.247 100.955L24.1559 109.241Z"/>
</mask>
<path d="M24.1559 109.241C28.5774 119.428 35.5475 128.305 44.3948 135.017L56.9733 118.436C50.9729 113.884 46.2457 107.864 43.247 100.955L24.1559 109.241Z" fill="#C0E0FF" stroke="#88A2FF" stroke-width="93.6783" mask="url(#path-11-inside-7_403_151)"/>
<circle cx="44.8148" cy="44.8148" r="39.9931" transform="matrix(-0.934286 0.356524 0.356524 0.934286 108.784 25.3657)" fill="#C0E0FF" stroke="#88A2FF" stroke-width="9.64335"/>
</svg>
