<svg width="132" height="132" viewBox="0 0 132 132" fill="none" xmlns="http://www.w3.org/2000/svg">
<circle cx="34.214" cy="34.214" r="33.5252" transform="matrix(-0.934286 0.356524 0.356524 0.934286 85.0156 22.117)" fill="#C0E0FF" stroke="#88A2FF" stroke-width="1.37762"/>
<circle cx="51.1197" cy="51.1197" r="50.4309" transform="matrix(-0.934286 0.356524 0.356524 0.934286 95.5332 0.00335693)" fill="#C0E0FF" stroke="#88A2FF" stroke-width="1.37762"/>
<circle cx="35.8241" cy="35.8241" r="32.38" transform="matrix(-0.934286 0.356524 0.356524 0.934286 85.916 20.038)" fill="#C0E0FF" stroke="#88A2FF" stroke-width="6.88811"/>
<circle cx="51.1198" cy="51.1198" r="48.3645" transform="matrix(-0.934286 0.356524 0.356524 0.934286 95.5205 0.0039978)" fill="#C0E0FF" stroke="#88A2FF" stroke-width="5.51049"/>
<mask id="path-5-inside-1_403_137" fill="white">
<path d="M59.2078 15.3214C50.5078 16.4852 42.254 19.8695 35.2413 25.1484L45.1344 38.2907C49.8905 34.7105 55.4883 32.4152 61.3887 31.6259L59.2078 15.3214Z"/>
</mask>
<path d="M59.2078 15.3214C50.5078 16.4852 42.254 19.8695 35.2413 25.1484L45.1344 38.2907C49.8905 34.7105 55.4883 32.4152 61.3887 31.6259L59.2078 15.3214Z" fill="#C0E0FF" stroke="#88A2FF" stroke-width="93.6783" mask="url(#path-5-inside-1_403_137)"/>
<mask id="path-6-inside-2_403_137" fill="white">
<path d="M101.914 29.6259C95.6705 23.4568 87.9434 18.9992 79.4771 16.6826L75.1356 32.5491C80.8776 34.1202 86.1182 37.1434 90.3529 41.3274L101.914 29.6259Z"/>
</mask>
<path d="M101.914 29.6259C95.6705 23.4568 87.9434 18.9992 79.4771 16.6826L75.1356 32.5491C80.8776 34.1202 86.1182 37.1434 90.3529 41.3274L101.914 29.6259Z" fill="#C0E0FF" stroke="#88A2FF" stroke-width="93.6783" mask="url(#path-6-inside-2_403_137)"/>
<mask id="path-7-inside-3_403_137" fill="white">
<path d="M116.995 69.352C117.572 60.5934 115.884 51.8338 112.094 43.9168L97.2569 51.0196C99.8273 56.3891 100.972 62.33 100.58 68.2701L116.995 69.352Z"/>
</mask>
<path d="M116.995 69.352C117.572 60.5934 115.884 51.8338 112.094 43.9168L97.2569 51.0196C99.8273 56.3891 100.972 62.33 100.58 68.2701L116.995 69.352Z" fill="#C0E0FF" stroke="#88A2FF" stroke-width="93.6783" mask="url(#path-7-inside-3_403_137)"/>
<mask id="path-8-inside-4_403_137" fill="white">
<path d="M98.4688 105.462C105.246 99.8846 110.474 92.6559 113.647 84.4722L98.3102 78.5248C96.1579 84.0751 92.6127 88.9777 88.016 92.7605L98.4688 105.462Z"/>
</mask>
<path d="M98.4688 105.462C105.246 99.8846 110.474 92.6559 113.647 84.4722L98.3102 78.5248C96.1579 84.0751 92.6127 88.9777 88.016 92.7605L98.4688 105.462Z" fill="#C0E0FF" stroke="#88A2FF" stroke-width="93.6783" mask="url(#path-8-inside-4_403_137)"/>
<mask id="path-9-inside-5_403_137" fill="white">
<path d="M21.8671 40.1673C17.4332 47.7426 15.0246 56.332 14.8732 65.1082L31.3205 65.3919C31.4232 59.4398 33.0567 53.6144 36.0638 48.4767L21.8671 40.1673Z"/>
</mask>
<path d="M21.8671 40.1673C17.4332 47.7426 15.0246 56.332 14.8732 65.1082L31.3205 65.3919C31.4232 59.4398 33.0567 53.6144 36.0638 48.4767L21.8671 40.1673Z" fill="#C0E0FF" stroke="#88A2FF" stroke-width="93.6783" mask="url(#path-9-inside-5_403_137)"/>
<mask id="path-10-inside-6_403_137" fill="white">
<path d="M52.7382 115.363C61.2159 117.638 70.1364 117.691 78.6407 115.518L74.5684 99.5808C68.8007 101.055 62.7507 101.018 57.001 99.4756L52.7382 115.363Z"/>
</mask>
<path d="M52.7382 115.363C61.2159 117.638 70.1364 117.691 78.6407 115.518L74.5684 99.5808C68.8007 101.055 62.7507 101.018 57.001 99.4756L52.7382 115.363Z" fill="#C0E0FF" stroke="#88A2FF" stroke-width="93.6783" mask="url(#path-10-inside-6_403_137)"/>
<mask id="path-11-inside-7_403_137" fill="white">
<path d="M19.0923 86.3434C22.587 94.3952 28.0962 101.411 35.0891 106.716L45.0312 93.6112C40.2885 90.0132 36.5521 85.2547 34.1819 79.7939L19.0923 86.3434Z"/>
</mask>
<path d="M19.0923 86.3434C22.587 94.3952 28.0962 101.411 35.0891 106.716L45.0312 93.6112C40.2885 90.0132 36.5521 85.2547 34.1819 79.7939L19.0923 86.3434Z" fill="#C0E0FF" stroke="#88A2FF" stroke-width="93.6783" mask="url(#path-11-inside-7_403_137)"/>
<circle cx="35.4216" cy="35.4216" r="30.5999" transform="matrix(-0.934286 0.356524 0.356524 0.934286 85.9824 20.0483)" fill="#C0E0FF" stroke="#88A2FF" stroke-width="9.64335"/>
</svg>
