<svg width="374" height="153" viewBox="0 0 374 153" fill="none" xmlns="http://www.w3.org/2000/svg">
<path d="M43.1171 75.9553C36.1331 75.0585 32.6302 69.689 32.5994 62.6929C32.5752 57.5073 32.5691 52.3204 32.5812 47.1323C32.5812 47.071 32.6109 47.0403 32.6702 47.0403H43.2858C43.3345 47.0403 43.3811 47.0601 43.4155 47.0953C43.4498 47.1305 43.4692 47.1782 43.4692 47.228C43.4679 51.5943 43.4655 55.972 43.4619 60.3609C43.4583 62.5972 44.0391 64.9199 46.58 65.2576C49.3805 65.6272 50.3224 63.4828 50.5112 60.9575C50.6794 58.7111 50.6818 56.4635 50.5184 54.2147C50.2716 50.8114 48.6872 48.0872 46.7197 45.4588C44.2139 42.1117 41.6959 38.7741 39.1659 35.4459C35.6503 30.8174 33.5014 25.8569 33.2419 19.9396C32.9206 12.6021 32.75 3.76361 40.8937 0.906261C42.2308 0.437228 43.693 0.160186 45.2805 0.0751346C47.969 -0.069953 50.268 -0.00491355 52.1773 0.270252C58.7493 1.21958 61.1541 5.93242 61.194 12.3338C61.2206 16.5926 61.2218 20.8527 61.1976 25.114C61.1976 25.1753 61.168 25.2059 61.1087 25.2059L50.8179 25.2397C50.7693 25.2397 50.7227 25.2197 50.6883 25.1842C50.6539 25.1487 50.6346 25.1005 50.6346 25.0502C50.6358 21.6607 50.6388 18.2498 50.6437 14.8178C50.6473 12.8478 50.4622 10.4258 48.0519 10.1293C45.177 9.77661 44.4075 11.7578 44.344 14.3375C44.3077 15.7796 44.3415 17.2211 44.4456 18.662C44.6779 21.857 46.1099 24.4086 47.9448 26.8926C50.6733 30.5873 53.4127 34.2733 56.1629 37.9505C59.1848 41.9935 61.4336 46.0479 62.0252 51.211C62.3901 54.3967 62.3773 57.9182 62.1759 61.2633C61.7203 68.8429 58.1921 75.2255 50.2244 76.0078C47.6932 76.2567 45.324 76.2392 43.1171 75.9553Z" fill="#FFF6E4"/>
<path d="M29.3587 66.9226C29.418 69.6981 29.4277 72.4253 29.3877 75.1045C29.3841 75.2808 29.2976 75.369 29.1282 75.369H18.6033C18.5551 75.369 18.509 75.3492 18.4749 75.314C18.4409 75.2789 18.4218 75.2311 18.4218 75.1814V42.7712C18.4218 42.7214 18.4027 42.6737 18.3686 42.6385C18.3346 42.6034 18.2884 42.5836 18.2403 42.5836H11.1166C11.068 42.5836 11.0214 42.6034 10.987 42.6385C10.9526 42.6737 10.9333 42.7214 10.9333 42.7712L10.9369 75.1345C10.9369 75.2908 10.8613 75.369 10.71 75.369L0.112528 75.3652C0.0375095 75.3652 0 75.3265 0 75.2489V0.839656C0 0.777118 0.0302492 0.74585 0.0907477 0.74585H10.8661C10.8839 0.74585 10.901 0.753163 10.9136 0.766181C10.9262 0.779199 10.9333 0.796857 10.9333 0.815267L10.9424 30.4638C10.9424 30.4847 10.9464 30.5055 10.9542 30.5248C10.9621 30.5442 10.9736 30.5617 10.9881 30.5765C11.0026 30.5913 11.0198 30.6031 11.0387 30.6111C11.0576 30.6191 11.0779 30.6232 11.0984 30.6232H18.2403C18.2884 30.6232 18.3346 30.6035 18.3686 30.5683C18.4027 30.5331 18.4218 30.4854 18.4218 30.4356V0.864045C18.4218 0.785248 18.4593 0.74585 18.5343 0.74585H29.2625C29.2996 0.74585 29.3351 0.761069 29.3613 0.788161C29.3875 0.815253 29.4023 0.851997 29.4023 0.890311C29.4023 22.8073 29.4023 44.7411 29.4023 66.6919C29.4023 66.7244 29.3962 66.7544 29.3841 66.7819C29.366 66.827 29.3575 66.8739 29.3587 66.9226Z" fill="#FFF6E4"/>
<path d="M76.4641 31.0923L87.2032 31.0979C87.2296 31.0979 87.255 31.1088 87.2737 31.1281C87.2925 31.1475 87.303 31.1737 87.303 31.2011L87.2975 42.3866C87.2975 42.414 87.287 42.4402 87.2683 42.4596C87.2496 42.4789 87.2242 42.4898 87.1977 42.4898H76.4641C76.4376 42.4898 76.4122 42.5007 76.3935 42.52C76.3748 42.5394 76.3643 42.5656 76.3643 42.593L76.3624 63.8683C76.3624 63.8957 76.373 63.9219 76.3917 63.9413C76.4104 63.9606 76.4358 63.9715 76.4623 63.9715H90.7841C90.8105 63.9715 90.8359 63.9824 90.8547 64.0017C90.8734 64.0211 90.8839 64.0473 90.8839 64.0747V75.2658C90.8839 75.2932 90.8734 75.3194 90.8547 75.3388C90.8359 75.3581 90.8105 75.369 90.7841 75.369H65.4836C65.4571 75.369 65.4317 75.3581 65.413 75.3388C65.3943 75.3194 65.3838 75.2932 65.3838 75.2658V0.849037C65.3838 0.82167 65.3943 0.795424 65.413 0.776073C65.4317 0.756722 65.4571 0.74585 65.4836 0.74585H90.2396C90.2661 0.74585 90.2915 0.756722 90.3102 0.776073C90.3289 0.795424 90.3394 0.82167 90.3394 0.849037V11.4773C90.3394 11.5047 90.3289 11.5309 90.3102 11.5503C90.2915 11.5696 90.2661 11.5805 90.2396 11.5805H76.4641C76.4376 11.5805 76.4122 11.5914 76.3935 11.6107C76.3748 11.6301 76.3643 11.6563 76.3643 11.6837V30.9891C76.3643 31.0026 76.3668 31.0161 76.3719 31.0286C76.3769 31.0411 76.3842 31.0525 76.3935 31.0621C76.4028 31.0716 76.4138 31.0792 76.4259 31.0844C76.438 31.0896 76.451 31.0923 76.4641 31.0923Z" fill="#FFF6E4"/>
<path d="M112.51 61.4819L111.083 75.232C111.079 75.2698 111.062 75.3048 111.034 75.3301C111.007 75.3553 110.971 75.3692 110.934 75.369H101.406C101.385 75.3692 101.364 75.3646 101.344 75.3558C101.325 75.3469 101.308 75.3338 101.294 75.3175C101.279 75.3012 101.269 75.2819 101.263 75.261C101.256 75.2402 101.254 75.2181 101.257 75.1964L110.056 0.880936C110.06 0.843466 110.078 0.808997 110.105 0.784089C110.133 0.759181 110.168 0.745572 110.205 0.745854H122.969C123.005 0.745971 123.04 0.759522 123.067 0.784006C123.094 0.808489 123.111 0.842251 123.116 0.879059L132.489 75.1945C132.492 75.2162 132.49 75.2383 132.484 75.2593C132.478 75.2803 132.467 75.2997 132.453 75.3162C132.44 75.3327 132.422 75.346 132.403 75.3551C132.384 75.3642 132.363 75.3689 132.342 75.369H122.042C122.005 75.3692 121.969 75.3553 121.942 75.3301C121.914 75.3048 121.897 75.2698 121.893 75.232L120.466 61.4781C120.462 61.4403 120.445 61.4054 120.417 61.3801C120.39 61.3548 120.354 61.3409 120.318 61.3412L112.659 61.3449C112.622 61.3447 112.586 61.3585 112.559 61.3838C112.531 61.4091 112.514 61.4441 112.51 61.4819ZM113.613 50.0694C113.612 50.0777 113.613 50.0861 113.616 50.0941C113.619 50.102 113.623 50.1093 113.628 50.1155C113.634 50.1217 113.64 50.1266 113.648 50.13C113.655 50.1333 113.663 50.1351 113.671 50.135L119.21 50.1388C119.219 50.1388 119.227 50.1371 119.234 50.1337C119.241 50.1304 119.248 50.1254 119.254 50.1192C119.259 50.1131 119.263 50.1058 119.266 50.0978C119.268 50.0899 119.269 50.0815 119.269 50.0731L116.446 23.2651C116.444 23.2512 116.437 23.2386 116.426 23.2296C116.416 23.2206 116.403 23.2156 116.389 23.2156C116.376 23.2156 116.362 23.2206 116.352 23.2296C116.341 23.2386 116.334 23.2512 116.332 23.2651L113.613 50.0694Z" fill="#FFF6E4"/>
<path d="M145.312 42.0927C145.235 42.0964 145.197 42.1377 145.197 42.2165V75.1576C145.197 75.2133 145.176 75.2668 145.138 75.3062C145.1 75.3456 145.048 75.3677 144.994 75.3677L134.398 75.3715C134.35 75.3715 134.304 75.3515 134.27 75.316C134.236 75.2804 134.217 75.2323 134.217 75.182V0.930336C134.217 0.881573 134.236 0.834807 134.269 0.800326C134.302 0.765845 134.347 0.746475 134.395 0.746475C140.454 0.745224 146.535 0.74585 152.639 0.748351C160.405 0.752104 163.038 5.52686 162.967 12.8738C162.926 17.2733 162.973 21.6728 162.92 26.0724C162.875 29.7759 161.646 33.2711 158.334 34.9878C158.326 34.992 158.319 34.9984 158.315 35.0062C158.31 35.014 158.308 35.0229 158.308 35.032C158.308 35.041 158.31 35.0497 158.315 35.0572C158.319 35.0646 158.326 35.0705 158.334 35.0741C161.205 36.4186 162.721 38.7481 162.882 42.0626C162.916 42.7531 162.935 43.4466 162.938 44.1433C162.972 50.7723 162.986 57.4013 162.98 64.0303C162.977 67.6606 162.528 71.4729 164.053 74.8856C164.076 74.9375 164.086 74.9947 164.082 75.0517C164.078 75.1088 164.061 75.1639 164.031 75.2121C164.001 75.2603 163.96 75.3 163.912 75.3275C163.863 75.355 163.809 75.3695 163.753 75.3696H153.357C153.277 75.3695 153.198 75.3454 153.131 75.3001C153.063 75.2548 153.01 75.1903 152.978 75.1145C152.436 73.8475 152.157 72.4822 152.141 71.0189C152.053 62.6663 152.026 54.3138 152.06 45.9613C152.069 43.5579 151.174 42.3028 148.847 42.1302C147.655 42.0426 146.477 42.0301 145.312 42.0927ZM149.005 31.318C151.876 30.9747 152.159 27.6314 152.096 25.3369C152.005 22.0593 152.049 18.7761 152.051 15.4966C152.051 13.234 151.599 11.1365 149.063 10.9564C147.813 10.8663 146.577 10.8451 145.355 10.8926C145.313 10.8941 145.273 10.9125 145.243 10.944C145.214 10.9755 145.197 11.0176 145.197 11.0614V31.2336C145.197 31.2614 145.203 31.2888 145.213 31.3143C145.224 31.3398 145.24 31.3627 145.259 31.3817C145.279 31.4007 145.302 31.4154 145.327 31.4248C145.352 31.4341 145.379 31.438 145.406 31.4362C146.631 31.3499 147.833 31.4587 149.005 31.318Z" fill="#FFF6E4"/>
<path d="M184.911 75.369H174.359C174.337 75.369 174.315 75.3645 174.295 75.3557C174.274 75.3469 174.255 75.3341 174.24 75.3179C174.224 75.3017 174.212 75.2824 174.203 75.2613C174.195 75.2401 174.19 75.2174 174.19 75.1945V11.755C174.19 11.7087 174.173 11.6643 174.141 11.6316C174.109 11.5989 174.066 11.5805 174.022 11.5805H165.148C165.104 11.5805 165.061 11.5621 165.029 11.5294C164.997 11.4967 164.979 11.4523 164.979 11.406V0.92033C164.979 0.897417 164.984 0.874728 164.992 0.853559C165.001 0.83239 165.013 0.813156 165.029 0.796954C165.045 0.780752 165.063 0.7679 165.084 0.759131C165.104 0.750363 165.126 0.74585 165.148 0.74585H194.122C194.144 0.74585 194.166 0.750363 194.187 0.759131C194.207 0.7679 194.226 0.780752 194.242 0.796954C194.257 0.813156 194.27 0.83239 194.278 0.853559C194.287 0.874728 194.291 0.897417 194.291 0.92033V11.406C194.291 11.4523 194.273 11.4967 194.242 11.5294C194.21 11.5621 194.167 11.5805 194.122 11.5805H185.249C185.227 11.5805 185.205 11.585 185.184 11.5938C185.164 11.6026 185.145 11.6154 185.13 11.6316C185.114 11.6478 185.101 11.6671 185.093 11.6882C185.084 11.7094 185.08 11.7321 185.08 11.755V75.1945C185.08 75.2408 185.062 75.2852 185.031 75.3179C184.999 75.3506 184.956 75.369 184.911 75.369Z" fill="#FFF6E4"/>
<path d="M223.646 61.3393L215.927 61.343C215.898 61.3433 215.87 61.3546 215.849 61.3746C215.827 61.3947 215.814 61.4222 215.811 61.4518L214.379 75.2602C214.376 75.2899 214.362 75.3174 214.341 75.3374C214.319 75.3575 214.292 75.3687 214.263 75.369H204.669C204.652 75.3689 204.636 75.3651 204.621 75.3579C204.605 75.3508 204.592 75.3404 204.581 75.3274C204.57 75.3145 204.562 75.2993 204.557 75.2829C204.552 75.2664 204.551 75.2491 204.553 75.232L213.357 0.852793C213.361 0.823116 213.375 0.795826 213.396 0.77611C213.418 0.756393 213.446 0.745626 213.475 0.745853H226.298C226.326 0.746083 226.354 0.757057 226.375 0.776731C226.397 0.796404 226.41 0.823437 226.414 0.852793L235.793 75.2339C235.796 75.251 235.794 75.2683 235.789 75.2848C235.784 75.3012 235.776 75.3164 235.765 75.3293C235.754 75.3422 235.741 75.3526 235.725 75.3598C235.71 75.367 235.694 75.3707 235.677 75.3709L225.31 75.3634C225.281 75.3631 225.254 75.3518 225.232 75.3318C225.211 75.3117 225.197 75.2842 225.194 75.2545L223.762 61.4481C223.759 61.4184 223.745 61.3909 223.724 61.3709C223.703 61.3508 223.675 61.3396 223.646 61.3393ZM222.481 50.135C222.493 50.1351 222.505 50.1325 222.516 50.1274C222.528 50.1223 222.538 50.1148 222.546 50.1054C222.554 50.096 222.56 50.085 222.564 50.0729C222.568 50.0609 222.569 50.0482 222.568 50.0356L219.76 23.3964C219.713 22.9486 219.666 22.9492 219.62 23.3983L216.907 50.0769C216.906 50.0848 216.907 50.093 216.909 50.1007C216.911 50.1084 216.915 50.1155 216.921 50.1215C216.926 50.1276 216.933 50.1324 216.94 50.1357C216.947 50.139 216.955 50.1407 216.963 50.1406L222.481 50.135Z" fill="#FFF6E4"/>
<path d="M247.494 32.884C247.449 33.3217 247.427 33.7132 247.427 34.0584C247.424 47.7992 247.423 61.5375 247.425 75.2733C247.425 75.2997 247.415 75.325 247.397 75.3436C247.379 75.3623 247.355 75.3727 247.33 75.3727L237.796 75.3615C237.621 75.3615 237.533 75.2708 237.533 75.0894V0.839656C237.533 0.814777 237.543 0.790917 237.56 0.773325C237.577 0.755733 237.6 0.74585 237.624 0.74585H247.405C247.437 0.74585 247.457 0.76211 247.465 0.794629L256.705 40.0789C256.782 40.4104 256.821 40.4054 256.821 40.0639L256.815 0.822772C256.815 0.802371 256.823 0.782805 256.837 0.768379C256.851 0.753954 256.87 0.74585 256.89 0.74585H266.754C266.778 0.74585 266.801 0.755733 266.818 0.773325C266.835 0.790917 266.845 0.814777 266.845 0.839656V75.127C266.845 75.1582 266.839 75.1892 266.827 75.2181C266.816 75.2471 266.799 75.2733 266.777 75.2954C266.756 75.3176 266.73 75.3351 266.702 75.3471C266.674 75.3591 266.644 75.3652 266.614 75.3652L258.042 75.3709C258.002 75.3708 257.962 75.3568 257.93 75.3309C257.898 75.3051 257.876 75.269 257.866 75.2283L247.53 32.8802C247.513 32.8127 247.501 32.8139 247.494 32.884Z" fill="#FFF6E4"/>
<path d="M271.215 75.3482C271.127 75.3472 271.042 75.3102 270.98 75.2452C270.918 75.1803 270.883 75.0925 270.883 75.0011V0.93145C270.883 0.882687 270.901 0.835921 270.934 0.801441C270.967 0.76696 271.012 0.747589 271.059 0.747589C276.741 0.745088 282.445 0.741335 288.17 0.736332C294.343 0.732579 298.347 3.65559 299.585 9.92187C299.866 11.354 300.008 12.7079 300.009 13.9837C300.014 29.8182 300.004 45.6522 299.978 61.4855C299.964 69.8249 296.245 75.3201 287.727 75.367C282.298 75.397 276.794 75.3907 271.215 75.3482ZM288.722 16.4227C288.717 14.0719 288.435 11.0776 285.446 10.9256C284.284 10.8668 283.132 10.8543 281.989 10.8881C281.967 10.8886 281.947 10.8977 281.932 10.9135C281.917 10.9292 281.909 10.9504 281.909 10.9725V64.3503C281.909 64.4216 281.943 64.4591 282.012 64.4629C283.025 64.5204 284.038 64.5192 285.05 64.4591C288.472 64.2584 288.747 61.2472 288.749 58.4837C288.759 44.464 288.75 30.4436 288.722 16.4227Z" fill="#FFF6E4"/>
<path d="M63.0258 147.623C61.1328 145.062 60.4468 141.739 60.4395 138.587C60.4274 133.473 60.4292 128.359 60.445 123.244C60.445 123.189 60.471 123.162 60.523 123.162L71.1913 123.164C71.2518 123.164 71.2821 123.196 71.2821 123.259C71.2809 126.938 71.2827 130.613 71.2875 134.285C71.2893 136.914 70.9917 141.201 74.6506 141.373C77.0881 141.488 78.119 139.811 78.3096 137.514C78.5255 134.925 78.5782 131.779 78.2769 129.499C77.8722 126.454 76.4075 124.068 74.5653 121.595C72.0329 118.198 69.4901 114.809 66.9371 111.428C63.6157 107.027 61.6229 102.564 61.1637 96.9541C60.3869 87.4796 60.9895 77.0071 72.7921 76.2172C81.9014 75.6075 88.9162 77.144 89.0341 88.4271C89.0789 92.6096 89.0868 96.8741 89.0577 101.22C89.0577 101.243 89.0489 101.265 89.0333 101.281C89.0176 101.298 88.9964 101.307 88.9742 101.307H78.5437C78.5191 101.307 78.4956 101.297 78.4782 101.279C78.4609 101.261 78.4511 101.236 78.4511 101.211C78.4511 97.6139 78.4499 94.003 78.4475 90.3783C78.4457 88.0425 77.805 86.0069 75.0844 86.2076C73.5502 86.3227 72.653 87.1407 72.3928 88.6616C72.0498 90.6597 72.0825 93.1906 72.2839 95.0761C72.6342 98.3593 74.2749 100.988 76.1861 103.569C79.4082 107.922 81.6255 110.894 82.8379 112.485C85.5748 116.078 88.0541 119.607 89.2483 124.01C90.1993 127.513 90.1685 131.233 90.0868 135.03C90.0432 137.099 89.9301 138.721 89.7474 139.897C88.6911 146.692 84.7926 151.456 77.923 152.137C72.7304 152.651 66.5106 152.341 63.0258 147.623Z" fill="#FFF6E4"/>
<path d="M129.142 144.283C129.14 144.274 129.135 144.266 129.129 144.26C129.122 144.255 129.114 144.251 129.105 144.251C129.097 144.25 129.088 144.253 129.08 144.258C129.073 144.263 129.067 144.27 129.064 144.279C127.501 148.284 124.116 151.903 119.829 152.391C112.97 153.172 108.972 147.821 108.105 141.453C107.999 140.684 107.947 139.518 107.947 137.954C107.942 122.518 107.95 107.081 107.972 91.644C107.981 85.828 109.845 79.496 115.622 77.1621C118.58 75.967 121.905 76.012 125.129 76.1903C134.004 76.6818 136.509 82.7942 136.616 90.9066C136.656 93.926 136.676 97.0616 136.676 100.314C136.676 100.364 136.656 100.413 136.621 100.449C136.587 100.485 136.54 100.505 136.49 100.505L126.134 100.516C126.087 100.516 126.041 100.497 126.007 100.462C125.974 100.427 125.955 100.38 125.955 100.33C125.961 97.2123 125.958 94.0861 125.947 90.9517C125.938 88.4452 124.474 86.5634 121.869 87.0512C119.306 87.5315 119.109 90.4339 119.109 92.5783C119.103 106.947 119.098 121.316 119.094 135.686C119.092 138.11 119.896 140.981 122.733 140.962C125.971 140.943 126.726 138.51 126.726 135.72C126.724 129.704 126.727 123.701 126.737 117.713C126.737 117.693 126.733 117.674 126.726 117.656C126.718 117.638 126.708 117.621 126.694 117.607C126.681 117.594 126.665 117.583 126.647 117.575C126.629 117.568 126.611 117.564 126.592 117.565L121.969 117.589C121.945 117.589 121.92 117.584 121.898 117.575C121.875 117.565 121.854 117.551 121.837 117.534C121.82 117.516 121.806 117.495 121.796 117.471C121.787 117.448 121.782 117.423 121.782 117.398V106.278C121.782 106.228 121.801 106.18 121.835 106.145C121.869 106.11 121.915 106.09 121.964 106.09H137.004C137.046 106.09 137.087 106.107 137.117 106.138C137.147 106.169 137.164 106.21 137.164 106.253V151.352C137.164 151.414 137.134 151.446 137.073 151.446H131.042C131.014 151.446 130.987 151.436 130.965 151.419C130.943 151.402 130.927 151.377 130.92 151.35L129.142 144.283Z" fill="#FFF6E4"/>
<path d="M212.879 128.737C213.665 138.808 212.67 151.879 199.634 152.222C197.352 152.282 195.031 152.318 192.782 151.86C185.564 150.397 183.335 144.478 183.317 137.626C183.306 132.836 183.306 128.045 183.315 123.255C183.317 123.194 183.347 123.163 183.406 123.163H194.109C194.134 123.163 194.157 123.173 194.174 123.191C194.192 123.209 194.202 123.233 194.202 123.259C194.202 127.731 194.202 132.218 194.202 136.718C194.202 139.51 195.338 141.59 198.325 141.313C200.547 141.104 201.116 138.996 201.256 137.033C201.415 134.802 201.416 132.569 201.26 130.335C201.024 126.986 199.508 124.309 197.557 121.707C194.917 118.185 192.271 114.668 189.619 111.156C185.973 106.33 184.031 101.081 183.94 94.9365C183.883 91.1543 183.724 88.2913 184.515 85.0756C186.668 76.3403 194.8 75.6161 202.006 76.2578C209.529 76.9276 211.919 81.9106 211.937 89.113C211.947 93.1467 211.948 97.1804 211.939 101.214C211.939 101.238 211.93 101.262 211.913 101.279C211.896 101.296 211.874 101.306 211.85 101.306H201.463C201.438 101.306 201.414 101.296 201.396 101.277C201.379 101.259 201.369 101.234 201.369 101.208C201.371 97.7839 201.374 94.3456 201.376 90.8935C201.378 88.9461 201.202 86.5427 198.817 86.235C196.205 85.8973 195.283 87.432 195.136 89.8278C195.05 91.2137 195.032 92.6014 195.082 93.991C195.212 97.61 196.79 100.46 198.864 103.248C201.815 107.214 204.766 111.181 207.716 115.15C210.754 119.238 212.467 123.471 212.879 128.737Z" fill="#FFF6E4"/>
<path d="M228.957 152.332C222.94 152.307 218.116 149.358 216.577 143.09C215.956 140.559 215.804 138.516 215.804 135.627C215.797 120.763 215.796 105.899 215.802 91.0347C215.804 83.2713 219.156 76.8568 227.409 76.2358C233.505 75.7761 240.645 76.0332 243.476 82.7797C244.636 85.547 244.825 88.7796 244.832 91.7983C244.841 96.1735 244.841 100.547 244.834 104.92C244.834 104.944 244.825 104.968 244.808 104.985C244.791 105.002 244.769 105.012 244.745 105.012H234.131C234.111 105.012 234.091 105.005 234.075 104.992C234.059 104.979 234.047 104.961 234.042 104.941C233.935 104.496 234.033 103.971 234.035 103.654C234.043 99.7913 234.042 95.9289 234.031 92.0666C234.022 88.8171 232.906 86.1924 229.14 87.1511C227.525 87.562 227.009 89.3575 227.008 90.8584C227.004 106.114 227.003 121.369 227.004 136.625C227.004 138.765 227.665 140.985 230.075 141.27C232.85 141.598 234.068 139.161 234.022 136.707C233.917 130.873 234.048 124.987 234.037 119.036C234.037 119.011 234.046 118.987 234.063 118.97C234.08 118.952 234.103 118.942 234.128 118.942H244.747C244.771 118.942 244.795 118.952 244.812 118.97C244.83 118.988 244.839 119.012 244.839 119.038C244.838 124.824 244.835 130.624 244.829 136.437C244.821 145.052 241.536 152.29 231.999 152.332C230.983 152.337 229.97 152.337 228.957 152.332Z" fill="#FFF6E4"/>
<path d="M289.677 151.334C282.505 148.69 281.467 140.584 281.461 133.846C281.448 112.513 281.447 98.884 281.458 92.9579C281.47 86.1851 283.363 78.9676 290.44 76.8269C293.149 76.0071 296.244 76.009 299.073 76.1947C309.566 76.8889 311.484 85.2752 311.49 94.29C311.497 107.636 311.497 120.981 311.491 134.327C311.488 143.343 309.112 151.951 298.551 152.317C295.578 152.42 292.59 152.409 289.677 151.334ZM292.659 134.222C292.665 136.895 292.581 141.167 296.338 141.306C299.573 141.424 300.29 138.484 300.29 135.828C300.291 121.26 300.283 106.692 300.268 92.1249C300.266 90.17 299.685 87.7123 297.616 87.1438C296.334 86.7911 295.21 86.9737 294.246 87.6916C292.52 88.973 292.669 91.8641 292.663 93.7665C292.628 107.252 292.627 120.737 292.659 134.222Z" fill="#FFF6E4"/>
<path d="M319.559 149.112C315.561 145.433 314.947 139.48 314.946 134.328C314.941 120.35 314.94 106.372 314.944 92.3945C314.946 84.4472 318.033 77.1547 326.65 76.2898C330.004 75.9521 333.571 75.9408 336.707 77.0253C343.736 79.4567 344.929 86.9406 344.93 93.5634C344.935 107.479 344.936 121.395 344.932 135.311C344.93 144.547 341.631 152.29 331.367 152.337C327.035 152.356 322.998 152.279 319.559 149.112ZM328.579 141.003C330.336 141.739 332.509 141.11 333.22 139.153C333.568 138.199 333.741 137.168 333.741 136.061C333.734 121.589 333.728 107.117 333.723 92.6459C333.723 91.1563 333.582 89.7586 332.955 88.6066C331.87 86.616 328.703 86.4453 327.273 88.0832C326.291 89.2107 326.109 91.145 326.109 92.6759C326.102 107.087 326.111 121.498 326.135 135.91C326.138 137.928 326.527 140.146 328.579 141.003Z" fill="#FFF6E4"/>
<path d="M17.4127 151.411C11.629 151.458 5.85081 151.466 0.0780431 151.435C0.0573448 151.435 0.0374945 151.426 0.0228586 151.411C0.00822272 151.396 0 151.376 0 151.354V76.9187C0 76.8963 0.00860543 76.8749 0.0239221 76.859C0.0392387 76.8432 0.0600114 76.8343 0.0816724 76.8343C6.07828 76.8018 12.0858 76.8124 18.1042 76.8662C19.2004 76.8762 20.3487 77.0669 21.5489 77.4384C27.9267 79.4177 29.0774 85.2169 29.0792 91.2805C29.0865 106.801 29.0877 122.322 29.0828 137.844C29.0828 138.467 29.0139 139.359 28.8759 140.52C28.0719 147.262 24.1461 151.356 17.4127 151.411ZM17.812 92.5C17.8083 90.0029 17.449 87.0161 14.2891 87.0086C12.7138 87.0048 11.6339 87.0011 11.0494 86.9973C10.9768 86.9973 10.9405 87.0348 10.9405 87.1099L10.9351 140.422C10.9351 140.496 10.9708 140.534 11.0422 140.536C13.8989 140.653 16.9571 141.004 17.6123 137.465C17.7575 136.677 17.8301 135.881 17.8301 135.077C17.8337 120.885 17.8277 106.692 17.812 92.5Z" fill="#FFF6E4"/>
<path d="M32.9414 151.324V76.948C32.9414 76.9152 32.954 76.8837 32.9765 76.8605C32.999 76.8373 33.0294 76.8242 33.0612 76.8242H57.7772C57.809 76.8242 57.8395 76.8373 57.8619 76.8605C57.8844 76.8837 57.897 76.9152 57.897 76.948V87.5351C57.897 87.5679 57.8844 87.5994 57.8619 87.6226C57.8395 87.6458 57.809 87.6589 57.7772 87.6589H44.0417C44.0259 87.6589 44.0104 87.6621 43.9958 87.6683C43.9813 87.6745 43.9681 87.6836 43.957 87.6951C43.9458 87.7066 43.937 87.7203 43.931 87.7353C43.925 87.7503 43.9219 87.7664 43.9219 87.7827V107.054C43.9219 107.071 43.925 107.087 43.931 107.102C43.937 107.117 43.9458 107.13 43.957 107.142C43.9681 107.153 43.9813 107.163 43.9958 107.169C44.0104 107.175 44.0259 107.178 44.0417 107.178L54.7826 107.167C54.8143 107.167 54.8448 107.18 54.8673 107.203C54.8897 107.226 54.9024 107.258 54.9024 107.291V118.444C54.9024 118.477 54.8897 118.509 54.8673 118.532C54.8448 118.555 54.8143 118.568 54.7826 118.568H44.0417C44.0259 118.568 44.0104 118.571 43.9958 118.578C43.9813 118.584 43.9681 118.593 43.957 118.604C43.9458 118.616 43.937 118.63 43.931 118.645C43.925 118.66 43.9219 118.676 43.9219 118.692V139.973C43.9219 140.006 43.9345 140.037 43.957 140.06C43.9794 140.084 44.0099 140.097 44.0417 140.097H58.3671C58.3989 140.097 58.4293 140.11 58.4518 140.133C58.4743 140.156 58.4869 140.188 58.4869 140.221V151.324C58.4869 151.356 58.4743 151.388 58.4518 151.411C58.4293 151.434 58.3989 151.447 58.3671 151.447H33.0612C33.0294 151.447 32.999 151.434 32.9765 151.411C32.954 151.388 32.9414 151.356 32.9414 151.324Z" fill="#FFF6E4"/>
<path d="M104.076 76.8257H93.3027C93.2455 76.8257 93.1992 76.8736 93.1992 76.9326V151.34C93.1992 151.399 93.2455 151.447 93.3027 151.447H104.076C104.133 151.447 104.18 151.399 104.18 151.34V76.9326C104.18 76.8736 104.133 76.8257 104.076 76.8257Z" fill="#FFF6E4"/>
<path d="M160.215 116.227V76.9218C160.215 76.8984 160.224 76.876 160.24 76.8594C160.256 76.8429 160.279 76.8336 160.302 76.8336L170.108 76.828C170.143 76.828 170.178 76.8426 170.203 76.8686C170.228 76.8947 170.242 76.93 170.242 76.9668V151.354C170.242 151.378 170.233 151.402 170.216 151.42C170.199 151.437 170.175 151.447 170.151 151.447H161.391C161.361 151.447 161.331 151.437 161.308 151.417C161.284 151.398 161.267 151.371 161.26 151.34L150.895 108.872C150.891 108.858 150.883 108.845 150.871 108.836C150.858 108.828 150.844 108.824 150.829 108.826C150.815 108.828 150.802 108.835 150.792 108.846C150.782 108.858 150.777 108.872 150.777 108.887C150.778 108.916 150.781 108.942 150.786 108.966C150.796 109.008 150.805 109.047 150.812 109.078C150.818 109.109 150.822 109.131 150.822 109.141V151.354C150.822 151.378 150.813 151.402 150.796 151.42C150.779 151.437 150.755 151.447 150.731 151.447H141.112C141.064 151.447 141.018 151.428 140.984 151.392C140.95 151.357 140.931 151.31 140.931 151.26V76.918C140.931 76.8931 140.94 76.8693 140.957 76.8517C140.974 76.8341 140.997 76.8242 141.021 76.8242H150.78C150.798 76.8242 150.814 76.8304 150.828 76.8416C150.841 76.8528 150.851 76.8685 150.855 76.8861L160.109 116.24C160.11 116.247 160.112 116.254 160.116 116.26C160.119 116.266 160.124 116.272 160.129 116.276C160.135 116.281 160.141 116.284 160.148 116.286C160.154 116.288 160.161 116.289 160.168 116.288C160.175 116.287 160.182 116.285 160.188 116.281C160.194 116.278 160.199 116.273 160.204 116.267C160.208 116.261 160.211 116.255 160.213 116.248C160.215 116.241 160.215 116.234 160.215 116.227Z" fill="#FFF6E4"/>
<path d="M259.273 118.799L259.262 151.31C259.262 151.328 259.259 151.346 259.252 151.363C259.245 151.379 259.236 151.395 259.223 151.407C259.211 151.42 259.196 151.43 259.18 151.437C259.164 151.444 259.147 151.447 259.13 151.447H248.418C248.383 151.447 248.349 151.433 248.324 151.407C248.299 151.382 248.285 151.347 248.285 151.31V76.9649C248.285 76.9286 248.299 76.8938 248.324 76.8681C248.349 76.8424 248.383 76.828 248.418 76.828L259.135 76.8374C259.17 76.8374 259.204 76.8518 259.229 76.8775C259.253 76.9032 259.267 76.938 259.267 76.9743L259.264 106.565C259.264 106.601 259.278 106.636 259.303 106.662C259.327 106.687 259.361 106.702 259.396 106.702H266.574C266.61 106.702 266.643 106.687 266.668 106.662C266.693 106.636 266.707 106.601 266.707 106.565V76.9612C266.707 76.9249 266.721 76.89 266.746 76.8643C266.771 76.8386 266.804 76.8242 266.839 76.8242H277.6C277.635 76.8242 277.669 76.8386 277.694 76.8643C277.719 76.89 277.733 76.9249 277.733 76.9612V151.31C277.733 151.347 277.719 151.382 277.694 151.407C277.669 151.433 277.635 151.447 277.6 151.447H266.839C266.804 151.447 266.771 151.433 266.746 151.407C266.721 151.382 266.707 151.347 266.707 151.31V118.799C266.707 118.763 266.693 118.728 266.668 118.702C266.643 118.676 266.61 118.662 266.574 118.662H259.405C259.37 118.662 259.337 118.676 259.312 118.702C259.287 118.728 259.273 118.763 259.273 118.799Z" fill="#FFF6E4"/>
<path d="M359.809 139.909H372.936C372.97 139.909 373.003 139.923 373.027 139.948C373.051 139.973 373.065 140.007 373.065 140.042V151.314C373.065 151.349 373.051 151.383 373.027 151.408C373.003 151.433 372.97 151.447 372.936 151.447H348.828C348.794 151.447 348.761 151.433 348.737 151.408C348.713 151.383 348.699 151.349 348.699 151.314V76.9574C348.699 76.9221 348.713 76.8882 348.737 76.8632C348.761 76.8383 348.794 76.8242 348.828 76.8242H359.551C359.585 76.8242 359.618 76.8383 359.642 76.8632C359.666 76.8882 359.68 76.9221 359.68 76.9574V139.776C359.68 139.811 359.693 139.845 359.717 139.87C359.742 139.895 359.774 139.909 359.809 139.909Z" fill="#FFF6E4"/>
</svg>
