<svg width="59" height="59" viewBox="0 0 59 59" fill="none" xmlns="http://www.w3.org/2000/svg">
<path d="M35.1076 15.8071C42.7417 18.7203 46.5686 27.2704 43.6556 34.9045C40.7424 42.5387 32.1923 46.3657 24.5581 43.4525C16.9241 40.5392 13.097 31.9892 16.0102 24.3551C18.9234 16.7211 27.4736 12.8941 35.1076 15.8071Z" fill="#FFF6E4" stroke="#AB9DFF"/>
<path d="M37.4674 8.61669C49.0012 13.018 54.7831 25.9358 50.3819 37.4696C45.9806 49.0034 33.0628 54.7853 21.529 50.384C9.9953 45.9827 4.21327 33.0649 8.61455 21.5312C13.0159 9.99749 25.9337 4.21552 37.4674 8.61669Z" fill="#FFF6E4" stroke="#AB9DFF"/>
<path d="M34.6637 17.003C41.6372 19.6641 45.1338 27.4747 42.4729 34.4482C39.8117 41.4218 32.0003 44.9181 25.0268 42.257C18.0533 39.5958 14.5578 31.7848 17.2188 24.8113C19.88 17.8379 27.6902 14.3421 34.6637 17.003Z" fill="#FFF6E4" stroke="#AB9DFF" stroke-width="5"/>
<path d="M37.5259 8.47563C49.1371 12.9064 54.958 25.9114 50.5273 37.5226C46.0964 49.1339 33.0915 54.9548 21.4803 50.524C9.86917 46.0931 4.04811 33.0882 8.47893 21.477C12.9098 9.86593 25.9148 4.04493 37.5259 8.47563Z" fill="#FFF6E4" stroke="#AB9DFF" stroke-width="0.7"/>
<mask id="path-5-inside-1_423_454" fill="white">
<path d="M32.5331 6.84907C36.4224 7.36931 40.1122 8.88224 43.2471 11.2421L38.8245 17.1173C36.6983 15.5168 34.1959 14.4907 31.5581 14.1379L32.5331 6.84907Z"/>
</mask>
<path d="M32.5331 6.84907C36.4224 7.36931 40.1122 8.88224 43.2471 11.2421L38.8245 17.1173C36.6983 15.5168 34.1959 14.4907 31.5581 14.1379L32.5331 6.84907Z" fill="#FFF6E4" stroke="#AB9DFF" stroke-width="44" mask="url(#path-5-inside-1_423_454)"/>
<mask id="path-6-inside-2_423_454" fill="white">
<path d="M13.4414 13.2438C16.2327 10.4859 19.6871 8.4932 23.4719 7.45759L25.4127 14.5506C22.8458 15.2529 20.503 16.6044 18.6099 18.4749L13.4414 13.2438Z"/>
</mask>
<path d="M13.4414 13.2438C16.2327 10.4859 19.6871 8.4932 23.4719 7.45759L25.4127 14.5506C22.8458 15.2529 20.503 16.6044 18.6099 18.4749L13.4414 13.2438Z" fill="#FFF6E4" stroke="#AB9DFF" stroke-width="44" mask="url(#path-6-inside-2_423_454)"/>
<mask id="path-7-inside-3_423_454" fill="white">
<path d="M6.69997 31.003C6.4419 27.0876 7.19636 23.1717 8.89068 19.6324L15.5235 22.8077C14.3744 25.2081 13.8627 27.8639 14.0378 30.5194L6.69997 31.003Z"/>
</mask>
<path d="M6.69997 31.003C6.4419 27.0876 7.19636 23.1717 8.89068 19.6324L15.5235 22.8077C14.3744 25.2081 13.8627 27.8639 14.0378 30.5194L6.69997 31.003Z" fill="#FFF6E4" stroke="#AB9DFF" stroke-width="42" mask="url(#path-7-inside-3_423_454)"/>
<mask id="path-8-inside-4_423_454" fill="white">
<path d="M14.9818 47.1458C11.9519 44.6524 9.61508 41.4209 8.1964 37.7624L15.0527 35.1037C16.0148 37.5849 17.5997 39.7766 19.6546 41.4676L14.9818 47.1458Z"/>
</mask>
<path d="M14.9818 47.1458C11.9519 44.6524 9.61508 41.4209 8.1964 37.7624L15.0527 35.1037C16.0148 37.5849 17.5997 39.7766 19.6546 41.4676L14.9818 47.1458Z" fill="#FFF6E4" stroke="#AB9DFF" stroke-width="44" mask="url(#path-8-inside-4_423_454)"/>
<mask id="path-9-inside-5_423_454" fill="white">
<path d="M49.226 17.9562C51.2081 21.3427 52.2849 25.1825 52.3525 29.1059L44.9999 29.2327C44.954 26.5719 44.2237 23.9676 42.8794 21.6709L49.226 17.9562Z"/>
</mask>
<path d="M49.226 17.9562C51.2081 21.3427 52.2849 25.1825 52.3525 29.1059L44.9999 29.2327C44.954 26.5719 44.2237 23.9676 42.8794 21.6709L49.226 17.9562Z" fill="#FFF6E4" stroke="#AB9DFF" stroke-width="44" mask="url(#path-9-inside-5_423_454)"/>
<mask id="path-10-inside-6_423_454" fill="white">
<path d="M35.4253 51.5721C31.6354 52.5889 27.6475 52.6128 23.8458 51.6414L25.6663 44.5166C28.2447 45.1754 30.9493 45.1592 33.5196 44.4696L35.4253 51.5721Z"/>
</mask>
<path d="M35.4253 51.5721C31.6354 52.5889 27.6475 52.6128 23.8458 51.6414L25.6663 44.5166C28.2447 45.1754 30.9493 45.1592 33.5196 44.4696L35.4253 51.5721Z" fill="#FFF6E4" stroke="#AB9DFF" stroke-width="44" mask="url(#path-10-inside-6_423_454)"/>
<mask id="path-11-inside-7_423_454" fill="white">
<path d="M50.4665 38.5989C48.9041 42.1984 46.4413 45.335 43.3152 47.7065L38.8707 41.8479C40.9908 40.2395 42.6612 38.1122 43.7207 35.671L50.4665 38.5989Z"/>
</mask>
<path d="M50.4665 38.5989C48.9041 42.1984 46.4413 45.335 43.3152 47.7065L38.8707 41.8479C40.9908 40.2395 42.6612 38.1122 43.7207 35.671L50.4665 38.5989Z" fill="#FFF6E4" stroke="#AB9DFF" stroke-width="44" mask="url(#path-11-inside-7_423_454)"/>
<path d="M35.1796 15.0748C43.0923 18.0943 47.059 26.9566 44.0395 34.8693C41.02 42.782 32.1577 46.7487 24.245 43.7293C16.3323 40.7098 12.3656 31.8475 15.385 23.9347C18.4045 16.022 27.2668 12.0553 35.1796 15.0748Z" stroke="#AB9DFF"/>
<path d="M31.3708 24.1634C30.723 22.4284 29.0499 21.6783 27.2381 21.8789C25.422 22.0802 23.5656 23.2399 22.7141 25.2175C20.9613 29.2884 22.7978 33.9784 26.7968 35.7003C30.7959 37.4221 35.465 35.5332 37.2178 31.4622C38.0714 29.4797 37.6614 27.4424 36.581 26.0441C35.5013 24.6468 33.7822 23.9157 31.9856 24.4664L31.5356 24.6054L31.3708 24.1634Z" fill="#AB9DFF" stroke="#AB9DFF"/>
<path d="M31.757 24.3625L32.8051 21.3184L31.3695 19.5155" stroke="#AB9DFF" stroke-width="0.5" stroke-linecap="round"/>
</svg>
