<svg width="706" height="446" viewBox="0 0 706 446" fill="none" xmlns="http://www.w3.org/2000/svg">
<mask id="path-1-inside-1_403_91" fill="white">
<rect width="705.167" height="445.642" rx="31"/>
</mask>
<rect width="705.167" height="445.642" rx="31" fill="#FFF6E4" stroke="#88A2FF" stroke-width="116" mask="url(#path-1-inside-1_403_91)"/>
<circle cx="31.5135" cy="28.9185" r="15.9423" fill="#FFF6E4"/>
<circle cx="157.569" cy="28.9185" r="15.9423" fill="#FFF6E4"/>
<circle cx="94.5409" cy="28.9185" r="15.9423" fill="#FFF6E4"/>
<circle cx="28.548" cy="88.9801" r="15.9423" transform="rotate(90 28.548 88.9801)" fill="#FFF6E4"/>
<circle cx="28.548" cy="222.45" r="15.9423" transform="rotate(90 28.548 222.45)" fill="#FFF6E4"/>
<circle cx="28.548" cy="155.715" r="15.9423" transform="rotate(90 28.548 155.715)" fill="#FFF6E4"/>
<circle cx="28.548" cy="289.185" r="15.9423" transform="rotate(90 28.548 289.185)" fill="#FFF6E4"/>
<circle cx="28.548" cy="355.92" r="15.9423" transform="rotate(90 28.548 355.92)" fill="#FFF6E4"/>
<circle cx="677.36" cy="88.9801" r="15.9423" transform="rotate(90 677.36 88.9801)" fill="#FFF6E4"/>
<circle cx="677.36" cy="222.45" r="15.9423" transform="rotate(90 677.36 222.45)" fill="#FFF6E4"/>
<circle cx="677.36" cy="155.715" r="15.9423" transform="rotate(90 677.36 155.715)" fill="#FFF6E4"/>
<circle cx="677.36" cy="289.185" r="15.9423" transform="rotate(90 677.36 289.185)" fill="#FFF6E4"/>
<circle cx="677.36" cy="355.92" r="15.9423" transform="rotate(90 677.36 355.92)" fill="#FFF6E4"/>
<circle cx="220.597" cy="28.9185" r="15.9423" fill="#FFF6E4"/>
<circle cx="346.651" cy="28.9185" r="15.9423" fill="#FFF6E4"/>
<circle cx="283.624" cy="28.9185" r="15.9423" fill="#FFF6E4"/>
<circle cx="409.679" cy="28.9185" r="15.9423" fill="#FFF6E4"/>
<circle cx="535.734" cy="28.9185" r="15.9423" fill="#FFF6E4"/>
<circle cx="472.707" cy="28.9185" r="15.9423" fill="#FFF6E4"/>
<circle cx="598.762" cy="28.9185" r="15.9423" fill="#FFF6E4"/>
<circle cx="661.789" cy="28.9185" r="15.9423" transform="rotate(90 661.789 28.9185)" fill="#FFF6E4"/>
<circle cx="31.5135" cy="415.982" r="15.9423" fill="#FFF6E4"/>
<circle cx="157.569" cy="415.982" r="15.9423" fill="#FFF6E4"/>
<circle cx="94.5409" cy="415.982" r="15.9423" fill="#FFF6E4"/>
<circle cx="220.597" cy="415.982" r="15.9423" fill="#FFF6E4"/>
<circle cx="346.651" cy="415.982" r="15.9423" fill="#FFF6E4"/>
<circle cx="283.624" cy="415.982" r="15.9423" fill="#FFF6E4"/>
<circle cx="409.679" cy="415.982" r="15.9423" fill="#FFF6E4"/>
<circle cx="535.734" cy="415.982" r="15.9423" fill="#FFF6E4"/>
<circle cx="472.707" cy="415.982" r="15.9423" fill="#FFF6E4"/>
<circle cx="598.762" cy="415.982" r="15.9423" fill="#FFF6E4"/>
<circle cx="661.789" cy="415.982" r="15.9423" transform="rotate(90 661.789 415.982)" fill="#FFF6E4"/>
</svg>
