<svg width="66" height="77" viewBox="0 0 66 77" fill="none" xmlns="http://www.w3.org/2000/svg">
<path d="M65.4844 65.5312C57.9844 72.9688 48.9219 76.6875 38.2969 76.6875C27.7344 76.6562 18.7188 72.9375 11.25 65.5312C3.75 58.0312 0 49 0 38.4375C0 27.9062 3.75 18.8594 11.25 11.2969C18.7812 3.76562 27.7969 0 38.2969 0L38.25 0.1875C48.625 0.1875 57.6875 3.92188 65.4375 11.3906L54.6094 22.2188C50.0469 17.7188 44.625 15.4688 38.3438 15.4688C31.9688 15.4688 26.5625 17.7188 22.125 22.2188C17.625 26.7812 15.375 32.2031 15.375 38.4844C15.375 44.8281 17.625 50.25 22.125 54.75C26.5938 59.2188 32 61.4531 38.3438 61.4531C44.7188 61.4531 50.1562 59.2031 54.6562 54.7031L65.4844 65.5312Z" fill="#AB9DFF"/>
</svg>
