<svg width="87" height="87" viewBox="0 0 87 87" fill="none" xmlns="http://www.w3.org/2000/svg">
<circle cx="43.5" cy="43.5" r="35.3438" fill="#AB9DFF"/>
<circle cx="43.5" cy="43.5" r="42" stroke="#AB9DFF" stroke-width="3"/>
<path d="M43.4999 37.3828C41.5379 37.3828 36.7031 25.414 36.7031 20.1777C36.7031 14.9413 50.2659 15.1076 50.2967 20.1777C50.3275 25.2478 45.462 37.3828 43.4999 37.3828Z" fill="#FFF6E4"/>
<path d="M48.6776 48.6774C50.1319 47.2231 62.02 51.9442 65.6532 55.5774C69.2865 59.2107 59.1184 69.1482 55.5776 65.6531C52.0369 62.158 47.2233 50.1317 48.6776 48.6774Z" fill="#FFF6E4"/>
<path d="M38.7101 38.7103C37.2558 40.1646 25.3677 35.4435 21.7345 31.8103C18.1012 28.177 28.2693 18.2395 31.8101 21.7346C35.3508 25.2297 40.1644 37.256 38.7101 38.7103Z" fill="#FFF6E4"/>
<path d="M38.7101 48.6774C37.2558 47.2231 25.3677 51.9442 21.7345 55.5774C18.1012 59.2107 28.2693 69.1482 31.8101 65.6531C35.3508 62.158 40.1644 50.1317 38.7101 48.6774Z" fill="#FFF6E4"/>
<path d="M48.6776 38.7103C50.1319 40.1646 62.02 35.4435 65.6532 31.8103C69.2865 28.177 59.1184 18.2395 55.5776 21.7346C52.0369 25.2297 47.2233 37.256 48.6776 38.7103Z" fill="#FFF6E4"/>
<path d="M43.5001 50.2969C45.4621 50.2969 50.2969 62.2657 50.2969 67.502C50.2969 72.7384 36.7341 72.5721 36.7033 67.502C36.6725 62.4319 41.538 50.2969 43.5001 50.2969Z" fill="#FFF6E4"/>
<path d="M50.2969 43.4999C50.2969 41.5379 62.2657 36.7031 67.502 36.7031C72.7384 36.7031 72.5721 50.2659 67.502 50.2967C62.4319 50.3275 50.2969 45.462 50.2969 43.4999Z" fill="#FFF6E4"/>
<path d="M36.7031 43.4999C36.7031 41.5379 24.7343 36.7031 19.498 36.7031C14.2616 36.7031 14.4279 50.2659 19.498 50.2967C24.5681 50.3275 36.7031 45.462 36.7031 43.4999Z" fill="#FFF6E4"/>
</svg>
