<svg width="93" height="93" viewBox="0 0 93 93" fill="none" xmlns="http://www.w3.org/2000/svg">
<circle cx="24.1037" cy="24.1037" r="23.4149" transform="matrix(-0.934286 0.356524 0.356524 0.934286 59.8945 15.5825)" fill="#FFF6E4" stroke="#AB9DFF" stroke-width="1.37762"/>
<circle cx="36.0137" cy="36.0137" r="35.3249" transform="matrix(-0.934286 0.356524 0.356524 0.934286 67.3047 0.00292969)" fill="#FFF6E4" stroke="#AB9DFF" stroke-width="1.37762"/>
<circle cx="25.238" cy="25.238" r="21.7939" transform="matrix(-0.934286 0.356524 0.356524 0.934286 60.5303 14.1177)" fill="#FFF6E4" stroke="#AB9DFF" stroke-width="6.88811"/>
<circle cx="36.0137" cy="36.0137" r="34.5137" transform="matrix(-0.934286 0.356524 0.356524 0.934286 67.2939 0.00390625)" fill="#FFF6E4" stroke="#AB9DFF" stroke-width="3"/>
<mask id="path-5-inside-1_403_16" fill="white">
<path d="M41.7117 10.795C35.5826 11.6148 29.7678 13.9991 24.8274 17.718L31.7971 26.9768C35.1477 24.4545 39.0914 22.8375 43.2482 22.2815L41.7117 10.795Z"/>
</mask>
<path d="M41.7117 10.795C35.5826 11.6148 29.7678 13.9991 24.8274 17.718L31.7971 26.9768C35.1477 24.4545 39.0914 22.8375 43.2482 22.2815L41.7117 10.795Z" fill="#FFF6E4" stroke="#AB9DFF" stroke-width="93.6783" mask="url(#path-5-inside-1_403_16)"/>
<mask id="path-6-inside-2_403_16" fill="white">
<path d="M71.7984 20.8725C67.3996 16.5263 61.9559 13.386 55.9914 11.754L52.9328 22.9318C56.978 24.0387 60.6701 26.1685 63.6534 29.1161L71.7984 20.8725Z"/>
</mask>
<path d="M71.7984 20.8725C67.3996 16.5263 61.9559 13.386 55.9914 11.754L52.9328 22.9318C56.978 24.0387 60.6701 26.1685 63.6534 29.1161L71.7984 20.8725Z" fill="#FFF6E4" stroke="#AB9DFF" stroke-width="93.6783" mask="url(#path-6-inside-2_403_16)"/>
<mask id="path-7-inside-3_403_16" fill="white">
<path d="M82.4223 48.8593C82.829 42.689 81.6401 36.5179 78.97 30.9403L68.5172 35.9443C70.3281 39.727 71.1345 43.9124 70.8586 48.0972L82.4223 48.8593Z"/>
</mask>
<path d="M82.4223 48.8593C82.829 42.689 81.6401 36.5179 78.97 30.9403L68.5172 35.9443C70.3281 39.727 71.1345 43.9124 70.8586 48.0972L82.4223 48.8593Z" fill="#FFF6E4" stroke="#AB9DFF" stroke-width="93.6783" mask="url(#path-7-inside-3_403_16)"/>
<mask id="path-8-inside-4_403_16" fill="white">
<path d="M69.371 74.2989C74.1458 70.3695 77.8284 65.2769 80.0641 59.5115L69.2592 55.3216C67.743 59.2318 65.2454 62.6856 62.0071 65.3506L69.371 74.2989Z"/>
</mask>
<path d="M69.371 74.2989C74.1458 70.3695 77.8284 65.2769 80.0641 59.5115L69.2592 55.3216C67.743 59.2318 65.2454 62.6856 62.0071 65.3506L69.371 74.2989Z" fill="#FFF6E4" stroke="#AB9DFF" stroke-width="93.6783" mask="url(#path-8-inside-4_403_16)"/>
<mask id="path-9-inside-5_403_16" fill="white">
<path d="M15.4053 28.2988C12.2817 33.6356 10.5848 39.6868 10.4782 45.8696L22.0652 46.0695C22.1376 41.8763 23.2884 37.7723 25.4069 34.1528L15.4053 28.2988Z"/>
</mask>
<path d="M15.4053 28.2988C12.2817 33.6356 10.5848 39.6868 10.4782 45.8696L22.0652 46.0695C22.1376 41.8763 23.2884 37.7723 25.4069 34.1528L15.4053 28.2988Z" fill="#FFF6E4" stroke="#AB9DFF" stroke-width="93.6783" mask="url(#path-9-inside-5_403_16)"/>
<mask id="path-10-inside-6_403_16" fill="white">
<path d="M37.1539 81.2743C43.1264 82.8767 49.4109 82.9144 55.4022 81.3835L52.5332 70.1555C48.4699 71.1937 44.2077 71.1682 40.1571 70.0814L37.1539 81.2743Z"/>
</mask>
<path d="M37.1539 81.2743C43.1264 82.8767 49.4109 82.9144 55.4022 81.3835L52.5332 70.1555C48.4699 71.1937 44.2077 71.1682 40.1571 70.0814L37.1539 81.2743Z" fill="#FFF6E4" stroke="#AB9DFF" stroke-width="93.6783" mask="url(#path-10-inside-6_403_16)"/>
<mask id="path-11-inside-7_403_16" fill="white">
<path d="M13.4505 60.8297C15.9125 66.5022 19.7937 71.4451 24.7202 75.1825L31.7244 65.9499C28.3831 63.4151 25.7509 60.0628 24.0811 56.2157L13.4505 60.8297Z"/>
</mask>
<path d="M13.4505 60.8297C15.9125 66.5022 19.7937 71.4451 24.7202 75.1825L31.7244 65.9499C28.3831 63.4151 25.7509 60.0628 24.0811 56.2157L13.4505 60.8297Z" fill="#FFF6E4" stroke="#AB9DFF" stroke-width="93.6783" mask="url(#path-11-inside-7_403_16)"/>
<circle cx="24.9544" cy="24.9544" r="20.9544" transform="matrix(-0.934286 0.356524 0.356524 0.934286 60.5762 14.1245)" fill="#FFF6E4" stroke="#AB9DFF" stroke-width="8"/>
</svg>
