<svg width="67" height="78" viewBox="0 0 67 78" fill="none" xmlns="http://www.w3.org/2000/svg">
<path d="M33.75 20.1562C33.4375 18.8125 32.7656 17.6875 31.7344 16.7812C30.6094 15.8438 29.3125 15.375 27.8438 15.375C24.5 15.375 22.5469 16.875 21.9844 19.875C21.8281 20.6875 22.3594 22.2656 23.5781 24.6094C25.3594 28.0781 27.2344 31.125 29.2031 33.75C30.3281 35.2812 31.8594 37.0625 33.7969 39.0938L35.0625 40.4062L36.375 41.7656C37.4688 42.9219 38.3906 43.8906 39.1406 44.6719C40.8906 46.5781 42.2656 47.9688 43.2656 48.8438C43.5469 47.5 43.7344 45.8906 43.8281 44.0156C43.8594 43.4219 43.8906 42.5625 43.9219 41.4375L43.9688 40.0781L44.0156 38.625L58.2188 38.4375C58 47.3125 56.9531 53.8281 55.0781 57.9844L55.5938 58.3125L56.1562 58.6875C56.625 58.9688 57.0312 59.2188 57.375 59.4375C58.375 60.0312 59.2812 60.5312 60.0938 60.9375C62.375 62.0625 64.3906 62.5938 66.1406 62.5312L66.0938 76.5938C62.8438 76.5938 59.5781 75.9375 56.2969 74.625C55.0469 74.0938 53.7188 73.4531 52.3125 72.7031C51.75 72.3906 51.1406 72.0469 50.4844 71.6719C50.0781 71.4219 49.5156 71.0781 48.7969 70.6406C47.9219 70.1406 47.1562 69.5938 46.5 69C43.6875 72.2188 39.7812 74.4688 34.7812 75.75C31.2188 76.6562 28 77.1094 25.125 77.1094C18.0938 77.1094 12.1406 74.7344 7.26562 69.9844C2.42188 65.2969 0 59.5781 0 52.8281C0.09375 48.4531 1.20312 44.9062 3.32812 42.1875C5.45312 39.4688 7.6875 36.9844 10.0312 34.7344C10.25 34.5156 10.6719 34.1719 11.2969 33.7031C10.1406 32.1094 9.07812 30 8.10938 27.375C7.04688 24.5312 6.48438 22 6.42188 19.7812C6.42188 15 8.34375 10.6875 12.1875 6.84375C13.875 5.15625 16.1094 3.64063 18.8906 2.29688C22.1094 0.765625 25.0938 0 27.8438 0C33.0312 0 37.625 1.70312 41.625 5.10938C45.375 8.29688 47.7812 12.25 48.8438 16.9688L33.75 20.1562ZM25.1719 62.25C26.7031 62.25 28.5312 61.9062 30.6562 61.2188C32.9062 60.4688 34.2969 59.6875 34.8281 58.875V58.9219C33.9531 58.1719 31.8594 56.2969 28.5469 53.2969C25.2031 50.2969 22.4844 47.0625 20.3906 43.5938C19.0156 44.5938 17.6562 45.7656 16.3125 47.1094C14.9688 48.4531 14.3438 50.4375 14.4375 53.0625C14.4375 54.3438 14.7969 55.6875 15.5156 57.0938C16.1406 58.2812 16.8906 59.2812 17.7656 60.0938C19.2344 61.5312 21.7031 62.25 25.1719 62.25Z" fill="#AB9DFF"/>
</svg>
