<svg width="94" height="95" viewBox="0 0 94 95" fill="none" xmlns="http://www.w3.org/2000/svg">
<path d="M39.7196 72.8287C38.1325 82.6347 28.5976 89.2492 18.4228 87.6024C8.24806 85.9556 1.28641 76.6712 2.87354 66.8651C4.46067 57.059 12.6152 48.7799 23.6821 55.1084C36.2915 53.1791 41.3068 63.0226 39.7196 72.8287Z" fill="#AB9DFF"/>
<path d="M85.4248 57.8808C89.6236 69.1604 83.5398 81.836 71.8362 86.1926C60.1326 90.5493 47.2412 84.9372 43.0424 73.6577C38.8436 62.3781 42.4768 48.7754 57.9229 48.8162C70.0501 39.2351 81.226 46.6013 85.4248 57.8808Z" fill="#AB9DFF"/>
<path d="M23.4854 55.947C23.4854 55.947 26.8771 40.797 29.8167 34.2396C32.7562 27.6822 49.0367 12.5322 49.0367 12.5322C49.0367 12.5322 43.6099 30.3956 50.3935 36.953C57.177 43.5105 58.5337 49.8418 58.5337 49.8418" stroke="#AB9DFF" stroke-width="4" stroke-linecap="round"/>
<path d="M68.4384 4.98083C68.4384 4.98083 65.7028 11.6899 60.0225 13.8215C54.3422 15.9531 47.8682 12.6999 47.8682 12.6999C47.8682 12.6999 50.6038 5.99078 56.2841 3.85922C61.9644 1.72767 68.4384 4.98083 68.4384 4.98083Z" fill="#AB9DFF"/>
</svg>
