<svg width="112" height="110" viewBox="0 0 112 110" fill="none" xmlns="http://www.w3.org/2000/svg">
<path d="M15.0581 46.0837L21.1313 78.2388C21.4181 79.7569 23.2445 80.3905 24.4097 79.3761L49.9458 57.1475C50.4981 56.6667 50.7435 55.9225 50.5855 55.2074L43.6464 23.8061C43.3189 22.3243 41.525 21.7327 40.3803 22.7292L15.7102 44.204C15.1745 44.6704 14.9263 45.3858 15.0581 46.0837Z" fill="#AB9DFF"/>
<path d="M17.772 48.9928L21.0889 66.3379C21.9583 70.8843 27.4303 72.7756 30.9215 69.7366L44.7999 57.6557C46.4605 56.2102 47.196 53.9713 46.7163 51.8226L42.9339 34.8827C41.943 30.4449 36.5683 28.6792 33.1386 31.6646L19.7257 43.3403C18.1149 44.7425 17.3708 46.8952 17.772 48.9928Z" fill="#FFF6E4"/>
<ellipse cx="32.1678" cy="49.6338" rx="2.64457" ry="3.75241" transform="rotate(-161.034 32.1678 49.6338)" fill="#AB9DFF"/>
<ellipse cx="28.0838" cy="62.8052" rx="2.64457" ry="3.75241" transform="rotate(-161.034 28.0838 62.8052)" fill="#AB9DFF"/>
<ellipse cx="22.8406" cy="47.0737" rx="2.64457" ry="3.75241" transform="rotate(-161.034 22.8406 47.0737)" fill="#AB9DFF"/>
<ellipse cx="40.3162" cy="53.6289" rx="2.64457" ry="3.75241" transform="rotate(-161.034 40.3162 53.6289)" fill="#AB9DFF"/>
<ellipse cx="35.0721" cy="37.8999" rx="2.64457" ry="3.75241" transform="rotate(-161.034 35.0721 37.8999)" fill="#AB9DFF"/>
<path d="M58.0418 96.6953L27.0307 86.2482C25.5666 85.755 25.1907 83.8587 26.356 82.8444L51.892 60.6157C52.4444 60.1349 53.2153 59.9944 53.9018 60.2495L84.047 71.4504C85.4696 71.9789 85.8082 73.8372 84.6635 74.8337L59.9934 96.3085C59.4577 96.7749 58.7148 96.9221 58.0418 96.6953Z" fill="#AB9DFF"/>
<path d="M53.68 54.4867L47.2709 22.3696C46.9686 20.8546 48.4251 19.5834 49.8853 20.0879L81.8414 31.1274C82.5566 31.3745 83.0711 32.004 83.1709 32.7541L87.434 64.8101C87.6325 66.3025 86.1731 67.4709 84.7603 66.9506L54.9501 55.9721C54.2972 55.7316 53.8162 55.1691 53.68 54.4867Z" fill="#AB9DFF"/>
<ellipse cx="55.1193" cy="28.2433" rx="2.67538" ry="3.79613" transform="rotate(-41.7955 55.1193 28.2433)" fill="#FFF6E4"/>
<ellipse cx="67.8546" cy="42.8747" rx="2.67538" ry="3.79613" transform="rotate(-41.7955 67.8546 42.8747)" fill="#FFF6E4"/>
<ellipse cx="80.59" cy="57.5046" rx="2.67538" ry="3.79613" transform="rotate(-41.7955 80.59 57.5046)" fill="#FFF6E4"/>
<ellipse cx="44.3998" cy="81.599" rx="2.67538" ry="3.79613" transform="rotate(-95.7086 44.3998 81.599)" fill="#FFF6E4"/>
<ellipse cx="65.3139" cy="78.5423" rx="2.67538" ry="3.79613" transform="rotate(-95.7086 65.3139 78.5423)" fill="#FFF6E4"/>
</svg>
