<svg width="313" height="346" viewBox="0 0 313 346" fill="none" xmlns="http://www.w3.org/2000/svg">
<path d="M167.895 103.776C136.879 104.524 106.241 135.89 99.7004 174.145C93.16 212.399 113.281 242.54 144.297 241.792C175.314 241.043 205.951 209.678 212.492 171.424C219.032 133.169 198.911 103.028 167.895 103.776Z" fill="#FFF6E4" stroke="#FFB2F2" stroke-width="1.37762"/>
<path d="M167.947 103.192C137.489 103.927 106.416 134.985 99.7246 174.121C93.0332 213.257 113.699 243.068 144.157 242.334C174.615 241.599 205.688 210.539 212.379 171.403C219.07 132.267 198.405 102.457 167.947 103.192Z" fill="#FFF6E4" stroke="#FFB2F2" stroke-width="6.88811"/>
<path d="M174.757 71.3287C129.486 72.4212 83.1923 114.279 73.5611 170.609C68.7488 198.756 74.0717 224.994 86.3098 244.018C98.5549 263.052 117.578 274.68 140.081 274.138C185.144 273.05 230.283 227.316 239.956 170.742C249.629 114.167 219.82 70.2415 174.757 71.3287Z" fill="#FFF6E4" stroke="#FFB2F2" stroke-width="5.51049"/>
<mask id="path-4-inside-1_403_282" fill="white">
<path d="M194.321 70.9202C180.769 67.161 165.813 67.9665 150.895 73.2592L152.994 105.269C163.112 101.679 173.255 101.133 182.447 103.682L194.321 70.9202Z"/>
</mask>
<path d="M194.321 70.9202C180.769 67.161 165.813 67.9665 150.895 73.2592L152.994 105.269C163.112 101.679 173.255 101.133 182.447 103.682L194.321 70.9202Z" fill="#FFF6E4" stroke="#FFB2F2" stroke-width="93.6783" mask="url(#path-4-inside-1_403_282)"/>
<mask id="path-5-inside-2_403_282" fill="white">
<path d="M242.427 127.752C239.146 111.624 232.162 97.7575 222.148 87.4865L201.319 114.918C208.111 121.884 212.847 131.288 215.073 142.226L242.427 127.752Z"/>
</mask>
<path d="M242.427 127.752C239.146 111.624 232.162 97.7575 222.148 87.4865L201.319 114.918C208.111 121.884 212.847 131.288 215.073 142.226L242.427 127.752Z" fill="#FFF6E4" stroke="#FFB2F2" stroke-width="93.6783" mask="url(#path-5-inside-2_403_282)"/>
<mask id="path-6-inside-3_403_282" fill="white">
<path d="M227.506 214.302C236.393 197.906 242.033 179.95 243.881 162.161L216.059 165.563C214.805 177.627 210.981 189.806 204.953 200.925L227.506 214.302Z"/>
</mask>
<path d="M227.506 214.302C236.393 197.906 242.033 179.95 243.881 162.161L216.059 165.563C214.805 177.627 210.981 189.806 204.953 200.925L227.506 214.302Z" fill="#FFF6E4" stroke="#FFB2F2" stroke-width="93.6783" mask="url(#path-6-inside-3_403_282)"/>
<mask id="path-7-inside-4_403_282" fill="white">
<path d="M167.699 270.779C182.555 264.752 196.706 254.492 208.79 240.987L192.259 219.023C184.064 228.183 174.467 235.142 164.391 239.229L167.699 270.779Z"/>
</mask>
<path d="M167.699 270.779C182.555 264.752 196.706 254.492 208.79 240.987L192.259 219.023C184.064 228.183 174.467 235.142 164.391 239.229L167.699 270.779Z" fill="#FFF6E4" stroke="#FFB2F2" stroke-width="93.6783" mask="url(#path-7-inside-4_403_282)"/>
<mask id="path-8-inside-5_403_282" fill="white">
<path d="M117.887 92.846C104.556 104.317 93.1962 119.127 84.9032 135.849L108.238 147.718C113.862 136.377 121.567 126.333 130.608 118.553L117.887 92.846Z"/>
</mask>
<path d="M117.887 92.846C104.556 104.317 93.1962 119.127 84.9032 135.849L108.238 147.718C113.862 136.377 121.567 126.333 130.608 118.553L117.887 92.846Z" fill="#FFF6E4" stroke="#FFB2F2" stroke-width="93.6783" mask="url(#path-8-inside-5_403_282)"/>
<mask id="path-9-inside-6_403_282" fill="white">
<path d="M92.9812 258.275C103.051 268.474 115.799 274.718 129.999 276.408L138.823 243.046C129.192 241.901 120.546 237.665 113.717 230.749L92.9812 258.275Z"/>
</mask>
<path d="M92.9812 258.275C103.051 268.474 115.799 274.718 129.999 276.408L138.823 243.046C129.192 241.901 120.546 237.665 113.717 230.749L92.9812 258.275Z" fill="#FFF6E4" stroke="#FFB2F2" stroke-width="93.6783" mask="url(#path-9-inside-6_403_282)"/>
<mask id="path-10-inside-7_403_282" fill="white">
<path d="M71.4154 179.468C69.02 197.312 70.4673 214.558 75.618 229.544L101.941 211.263C98.4475 201.099 97.4659 189.403 99.0905 177.301L71.4154 179.468Z"/>
</mask>
<path d="M71.4154 179.468C69.02 197.312 70.4673 214.558 75.618 229.544L101.941 211.263C98.4475 201.099 97.4659 189.403 99.0905 177.301L71.4154 179.468Z" fill="#FFF6E4" stroke="#FFB2F2" stroke-width="93.6783" mask="url(#path-10-inside-7_403_282)"/>
<path d="M168.472 104.597C139.406 105.299 109.206 135.082 102.671 173.301C96.1371 211.519 116.361 240.086 145.427 239.384C174.493 238.683 204.694 208.9 211.229 170.682C217.763 132.463 197.539 103.896 168.472 104.597Z" stroke="#FFB2F2" stroke-width="9.64335"/>
</svg>
