<svg width="223" height="135" viewBox="0 0 223 135" fill="none" xmlns="http://www.w3.org/2000/svg">
<path d="M40.7726 2.63431L21.091 56.6927C20.641 57.9287 22.11 59.6313 23.6849 59.6992L99.352 62.9616C100.059 62.9921 100.604 62.6626 100.783 62.0954L117.904 7.9266C118.296 6.68657 116.839 5.03755 115.293 4.97089L42.1862 1.8189C41.5016 1.78938 40.9682 2.09708 40.7726 2.63431Z" fill="#88A2FF"/>
<path d="M43.9814 8.14934L30.3863 45.8641C29.0493 49.5731 33.4535 54.669 38.172 54.8724L91.5343 57.1731C93.6612 57.2648 95.296 56.2718 95.8302 54.5636L107.649 16.7722C108.812 13.0515 104.445 8.11583 99.8118 7.91608L48.2261 5.69198C46.1674 5.60322 44.5647 6.53103 43.9814 8.14934Z" fill="#FFF6E4"/>
<ellipse cx="5.21366" cy="7.69608" rx="5.21366" ry="7.69608" transform="matrix(-0.779624 -0.833143 0.742702 -0.411595 68.7918 37.6688)" fill="#88A2FF"/>
<ellipse cx="5.21366" cy="7.69608" rx="5.21366" ry="7.69608" transform="matrix(-0.779624 -0.833143 0.742702 -0.411595 48.4382 49.9913)" fill="#88A2FF"/>
<ellipse cx="5.21366" cy="7.69608" rx="5.21366" ry="7.69608" transform="matrix(-0.779624 -0.833143 0.742702 -0.411595 53.0252 22.3299)" fill="#88A2FF"/>
<ellipse cx="5.21366" cy="7.69608" rx="5.21366" ry="7.69608" transform="matrix(-0.779624 -0.833143 0.742702 -0.411595 80.9119 53.4132)" fill="#88A2FF"/>
<ellipse cx="5.21366" cy="7.69608" rx="5.21366" ry="7.69608" transform="matrix(-0.779624 -0.833143 0.742702 -0.411595 85.4959 25.7543)" fill="#88A2FF"/>
<path d="M77.4867 126.907L23.434 69.6696C22.1981 68.3609 22.6409 66.7407 24.2158 66.8086L99.8829 70.071C100.59 70.1015 101.355 70.4874 101.895 71.0856L153.387 128.213C154.566 129.52 154.102 131.087 152.556 131.02L79.4489 127.868C78.7643 127.838 78.0239 127.476 77.4867 126.907Z" fill="#88A2FF"/>
<path d="M107.496 65.0038L126.509 10.3437C126.916 9.17128 128.892 9.29882 130.083 10.5745L185.572 70.0156C186.17 70.6561 186.388 71.4204 186.133 71.9824L162.699 123.61C162.204 124.702 160.269 124.506 159.131 123.249L108.062 66.8404C107.522 66.2444 107.307 65.546 107.496 65.0038Z" fill="#88A2FF"/>
<ellipse cx="5.59031" cy="7.32856" rx="5.59031" ry="7.32856" transform="matrix(0.995398 0.0314162 0.309324 0.955992 127.463 23.8336)" fill="#FFF6E4"/>
<ellipse cx="5.59031" cy="7.32856" rx="5.59031" ry="7.32856" transform="matrix(0.995398 0.0314162 0.309324 0.955992 138.512 59.6144)" fill="#FFF6E4"/>
<ellipse cx="5.59031" cy="7.32856" rx="5.59031" ry="7.32856" transform="matrix(0.995398 0.0314162 0.309324 0.955992 149.561 95.3905)" fill="#FFF6E4"/>
<ellipse cx="5.31094" cy="7.73559" rx="5.31094" ry="7.73559" transform="matrix(0.374044 -0.73184 0.997456 0.559495 54.4988 87.9442)" fill="#FFF6E4"/>
<ellipse cx="5.31094" cy="7.73559" rx="5.31094" ry="7.73559" transform="matrix(0.374044 -0.73184 0.997456 0.559495 98.1267 110.619)" fill="#FFF6E4"/>
</svg>
