<svg width="187" height="302" viewBox="0 0 187 302" fill="none" xmlns="http://www.w3.org/2000/svg">
<path d="M93.6488 219.199C103.652 213.939 112.77 201.602 119.395 185.685C126.014 169.783 130.081 150.44 129.987 131.45C129.892 112.461 125.654 97.4851 118.912 88.6091C112.163 79.7244 102.97 77.0162 92.9671 82.276C82.9638 87.536 73.8451 99.8731 67.2196 115.79C60.6007 131.692 56.5339 151.034 56.6283 170.024C56.7229 189.014 60.9605 203.99 67.7029 212.866C74.4518 221.751 83.6455 224.459 93.6488 219.199Z" fill="#FFF6E4" stroke="#253A82" stroke-width="1.37762"/>
<path d="M93.6817 219.703C102.995 214.806 111.89 203.095 118.589 187C125.256 170.983 129.43 151.283 129.333 131.816C129.236 112.348 124.889 97.1296 118.097 88.1891C111.273 79.2051 102.308 76.8858 92.9951 81.7828C83.6819 86.68 74.787 98.3905 68.0876 114.486C61.4206 130.503 57.2464 150.203 57.3433 169.67C57.4402 189.138 61.7882 204.356 68.5795 213.297C75.4038 222.281 84.3685 224.6 93.6817 219.703Z" fill="#FFF6E4" stroke="#253A82" stroke-width="6.88811"/>
<path d="M92.9458 251.773C107.27 244.241 120.81 227.288 130.842 204.808C140.863 182.353 147.21 154.707 147.07 126.629C146.93 98.542 140.327 75.5801 130.065 61.6661C119.751 47.6821 106.084 43.2117 91.9446 50.6466C77.7345 58.1187 64.5247 75.7856 54.7763 99.2055C45.0537 122.564 39.0301 151.114 39.17 179.223C39.31 207.333 45.5857 229.415 55.4894 242.453C65.4195 255.525 78.7357 259.245 92.9458 251.773Z" fill="#FFF6E4" stroke="#253A82" stroke-width="5.51049"/>
<mask id="path-4-inside-1_403_295" fill="white">
<path d="M80.1594 258.493C89.4906 257.669 99.2079 252.115 108.375 242.367L103.249 213.033C97.0318 219.645 90.4414 223.412 84.1129 223.971L80.1594 258.493Z"/>
</mask>
<path d="M80.1594 258.493C89.4906 257.669 99.2079 252.115 108.375 242.367L103.249 213.033C97.0318 219.645 90.4414 223.412 84.1129 223.971L80.1594 258.493Z" fill="#FFF6E4" stroke="#253A82" stroke-width="93.6783" mask="url(#path-4-inside-1_403_295)"/>
<mask id="path-5-inside-2_403_295" fill="white">
<path d="M41.944 220.653C45.9851 234.718 52.1909 245.477 59.9637 251.892L70.4159 219.494C65.1443 215.143 60.9355 207.846 58.1948 198.307L41.944 220.653Z"/>
</mask>
<path d="M41.944 220.653C45.9851 234.718 52.1909 245.477 59.9637 251.892L70.4159 219.494C65.1443 215.143 60.9355 207.846 58.1948 198.307L41.944 220.653Z" fill="#FFF6E4" stroke="#253A82" stroke-width="93.6783" mask="url(#path-5-inside-2_403_295)"/>
<mask id="path-6-inside-3_403_295" fill="white">
<path d="M41.5973 134.73C37.6865 152.951 36.0897 171.594 36.9607 188.863L54.815 176.746C54.2243 165.034 55.3073 152.391 57.9596 140.033L41.5973 134.73Z"/>
</mask>
<path d="M41.5973 134.73C37.6865 152.951 36.0897 171.594 36.9607 188.863L54.815 176.746C54.2243 165.034 55.3073 152.391 57.9596 140.033L41.5973 134.73Z" fill="#FFF6E4" stroke="#253A82" stroke-width="93.6783" mask="url(#path-6-inside-3_403_295)"/>
<mask id="path-7-inside-4_403_295" fill="white">
<path d="M74.2192 62.5952C65.1788 73.012 57.0966 87.1711 50.7508 103.709L64.1676 118.994C68.4714 107.778 73.9529 98.1749 80.0842 91.1102L74.2192 62.5952Z"/>
</mask>
<path d="M74.2192 62.5952C65.1788 73.012 57.0966 87.1711 50.7508 103.709L64.1676 118.994C68.4714 107.778 73.9529 98.1749 80.0842 91.1102L74.2192 62.5952Z" fill="#FFF6E4" stroke="#253A82" stroke-width="93.6783" mask="url(#path-7-inside-4_403_295)"/>
<mask id="path-8-inside-5_403_295" fill="white">
<path d="M127.736 213.414C135.139 198.383 140.857 180.855 144.339 162.518L127.64 158.879C125.279 171.315 121.401 183.203 116.38 193.398L127.736 213.414Z"/>
</mask>
<path d="M127.736 213.414C135.139 198.383 140.857 180.855 144.339 162.518L127.64 158.879C125.279 171.315 121.401 183.203 116.38 193.398L127.736 213.414Z" fill="#FFF6E4" stroke="#253A82" stroke-width="93.6783" mask="url(#path-8-inside-5_403_295)"/>
<mask id="path-9-inside-6_403_295" fill="white">
<path d="M124.702 50.3428C116.902 44.0133 107.807 42.25 98.2932 45.2226L96.4114 79.3278C102.864 77.3117 109.032 78.5077 114.323 82.8004L124.702 50.3428Z"/>
</mask>
<path d="M124.702 50.3428C116.902 44.0133 107.807 42.25 98.2932 45.2226L96.4114 79.3278C102.864 77.3117 109.032 78.5077 114.323 82.8004L124.702 50.3428Z" fill="#FFF6E4" stroke="#253A82" stroke-width="93.6783" mask="url(#path-9-inside-6_403_295)"/>
<mask id="path-10-inside-7_403_295" fill="white">
<path d="M148.08 117.3C147.562 99.8035 144.592 84.1012 139.458 71.7051L124.33 97.2886C127.812 105.696 129.826 116.345 130.177 128.211L148.08 117.3Z"/>
</mask>
<path d="M148.08 117.3C147.562 99.8035 144.592 84.1012 139.458 71.7051L124.33 97.2886C127.812 105.696 129.826 116.345 130.177 128.211L148.08 117.3Z" fill="#FFF6E4" stroke="#253A82" stroke-width="93.6783" mask="url(#path-10-inside-7_403_295)"/>
<path d="M93.1713 218.523C101.776 213.999 110.232 203.047 116.732 187.429C123.187 171.921 127.271 152.73 127.176 133.698C127.081 114.666 122.829 99.8584 116.253 91.2021C109.632 82.4849 101.111 80.4603 92.5065 84.9849C83.9019 89.5095 75.4468 100.46 68.9464 116.077C62.4913 131.585 58.4069 150.777 58.5016 169.809C58.5964 188.841 62.85 203.648 69.4254 212.305C76.047 221.022 84.5667 223.048 93.1713 218.523Z" stroke="#253A82" stroke-width="9.64335"/>
</svg>
